<?xml version="1.0" standalone="no"?>
<!DOCTYPE svg PUBLIC "-//W3C//DTD SVG 20010904//EN"
 "http://www.w3.org/TR/2001/REC-SVG-20010904/DTD/svg10.dtd">
<svg version="1.0" xmlns="http://www.w3.org/2000/svg"
 width="400.000000pt" height="400.000000pt" viewBox="0 0 400.000000 400.000000"
 preserveAspectRatio="xMidYMid meet">

<g transform="translate(0.000000,400.000000) scale(0.100000,-0.100000)"
fill="#000000" stroke="none">
<path d="M0 3155 c0 -465 2 -845 5 -845 3 0 25 10 48 22 31 16 65 23 132 26
127 6 163 -6 245 -83 83 -78 134 -105 198 -105 65 0 108 30 147 100 28 51 30
63 30 155 0 87 -3 105 -23 137 -45 72 -96 56 -145 -46 -34 -68 -47 -64 -58 16
-20 139 -11 204 50 378 46 130 39 196 -23 218 -43 16 -73 15 -143 -3 -71 -19
-123 -12 -164 22 -32 28 -58 31 -128 18 -39 -7 -43 -6 -39 11 4 24 99 88 153
104 22 6 59 21 83 32 36 17 57 20 118 16 55 -4 74 -2 74 7 0 19 -24 25 -79 18
-54 -6 -50 -9 -131 85 -14 16 -30 22 -62 22 -43 1 -43 1 -21 19 20 17 170 51
223 51 12 0 49 -20 82 -45 62 -47 112 -60 106 -28 -2 10 -17 21 -33 26 -59 17
-79 32 -89 66 -8 28 -19 38 -63 57 -59 27 -68 44 -23 44 22 0 41 10 68 38 31
31 50 41 115 56 72 17 80 17 120 2 147 -56 336 -308 381 -506 40 -177 47 -557
13 -710 -8 -36 -13 -67 -12 -68 2 -2 32 16 67 41 115 82 184 101 413 116 174
12 226 22 256 52 24 24 24 34 -2 60 -19 19 -30 21 -102 17 l-80 -5 26 21 c15
12 27 28 27 35 0 19 -46 8 -135 -33 -41 -19 -75 -32 -75 -28 0 4 8 30 19 57
45 121 74 184 109 234 50 72 77 80 157 45 37 -17 84 -29 127 -32 61 -4 71 -2
93 18 13 12 29 35 36 52 15 36 8 43 -70 59 -66 13 -118 8 -281 -32 -213 -52
-334 -30 -395 75 -20 34 -25 56 -25 111 0 111 45 178 133 199 62 15 172 -43
165 -87 -6 -37 -32 -43 -83 -18 -84 42 -135 6 -135 -96 0 -88 46 -123 162
-123 48 0 106 9 168 26 63 18 131 28 200 31 102 5 124 1 203 -32 16 -7 18 -4
15 21 -2 20 -13 34 -38 49 -31 18 -52 20 -195 20 l-160 0 -25 51 c-14 29 -36
84 -50 123 -36 106 -36 106 188 106 210 0 248 -11 300 -88 45 -65 74 -69 103
-15 26 49 -33 91 -153 108 -129 19 -177 45 -164 88 11 34 62 47 186 47 142 -1
183 -16 357 -134 127 -86 203 -119 291 -128 56 -6 57 -8 42 -47 l-10 -26 65 0
c36 0 65 -2 65 -5 0 -3 -23 -36 -51 -73 -33 -44 -49 -74 -46 -87 3 -11 13 -49
23 -85 27 -97 25 -297 -4 -408 -46 -172 -122 -328 -243 -496 -64 -90 -89 -141
-89 -181 0 -15 -6 -25 -14 -25 -22 0 -75 70 -82 107 -9 47 -20 41 -34 -18 -28
-116 26 -268 137 -388 52 -56 69 -66 165 -105 95 -39 155 -70 210 -108 14 -10
32 -4 100 29 108 55 151 91 184 159 39 80 31 159 -29 285 -58 120 -70 166 -69
264 0 107 24 201 76 310 52 107 185 296 292 415 230 256 281 432 161 553 -51
51 -102 71 -177 72 -36 0 -77 -3 -91 -7 -28 -8 -51 -50 -70 -131 -11 -46 -7
-193 7 -249 10 -44 -11 -34 -63 31 -26 33 -51 60 -55 60 -11 1 -9 -142 3 -224
30 -210 -4 -316 -124 -385 -29 -16 -58 -30 -66 -30 -14 0 -15 -4 19 125 25 94
21 187 -10 275 -39 109 -20 285 45 416 86 175 231 262 419 252 140 -7 249 -77
313 -200 24 -47 27 -64 28 -149 0 -54 3 -95 7 -93 3 2 25 36 47 75 43 73 63
140 61 194 -4 72 11 51 34 -48 20 -84 20 -257 2 -310 -20 -53 -62 -105 -114
-138 l-46 -29 31 0 c17 0 61 9 97 20 l66 21 0 454 0 455 -2000 0 -2000 0 0
-845z"/>
<path d="M3950 2835 c-25 -33 -73 -82 -107 -109 -70 -56 -68 -66 12 -66 53 0
132 30 141 53 2 7 4 51 2 98 l-3 84 -45 -60z"/>
<path d="M3967 2586 c-34 -64 -105 -140 -157 -166 -21 -11 -86 -38 -145 -60
-145 -55 -175 -72 -218 -119 -82 -91 -102 -161 -102 -366 0 -155 -1 -162 -28
-216 -38 -76 -126 -159 -222 -210 -44 -23 -81 -43 -83 -45 -2 -1 5 -19 15 -40
15 -33 18 -69 18 -232 l0 -194 33 -29 c28 -25 35 -27 59 -18 37 14 84 50 170
131 82 78 103 85 103 34 0 -56 13 -76 113 -177 63 -64 99 -108 108 -135 18
-54 16 -136 -5 -222 -23 -90 -18 -167 12 -209 36 -51 30 -60 -55 -86 -43 -14
-99 -28 -124 -31 -41 -6 -53 -14 -95 -64 -27 -31 -66 -74 -88 -94 l-39 -38
381 0 382 0 0 1320 c0 726 -1 1320 -2 1320 -2 0 -16 -24 -31 -54z"/>
<path d="M0 2168 c0 -27 3 -30 23 -23 12 3 57 9 99 12 91 7 94 23 5 23 -34 0
-77 4 -95 9 -31 9 -32 9 -32 -21z"/>
<path d="M132 1959 c-36 -32 -68 -37 -98 -14 -10 8 -22 15 -26 15 -5 0 -8
-441 -8 -980 l0 -980 290 0 290 0 11 27 c16 44 39 62 95 79 50 14 94 47 81 61
-12 11 -84 -16 -137 -53 -40 -27 -62 -36 -95 -36 -45 0 -92 19 -114 46 -17 20
-44 20 -82 0 -37 -19 -44 -14 -35 22 10 39 71 91 128 110 27 9 68 34 91 55 64
60 174 89 262 69 28 -6 95 -33 150 -59 55 -26 130 -55 166 -65 59 -16 68 -17
102 -2 43 17 63 52 53 93 -11 42 -111 132 -209 186 -190 106 -293 280 -273
459 20 169 102 266 256 302 161 38 308 5 655 -149 163 -72 266 -99 355 -93 82
6 124 27 139 69 9 27 8 39 -7 68 -26 50 -79 83 -202 125 -166 58 -252 125
-337 266 -78 127 -96 151 -132 176 -70 47 -180 24 -216 -45 -19 -38 -19 -129
0 -201 8 -30 15 -58 15 -62 0 -18 -17 -6 -35 24 -36 61 -140 154 -211 189 -64
32 -75 34 -169 34 -105 0 -116 -3 -213 -62 -51 -30 -129 -55 -137 -44 -2 5 4
16 15 26 24 22 25 46 5 85 -19 37 -62 60 -112 60 -40 0 -53 -7 -141 -73 -60
-46 -115 -59 -185 -46 -38 7 -53 5 -72 -7 -23 -15 -24 -15 -30 9 -9 34 9 96
40 137 14 19 31 52 37 73 7 24 26 49 50 68 36 29 47 52 30 63 -4 2 -22 -9 -40
-25z"/>
<path d="M2251 844 c-134 -106 -220 -128 -456 -119 -143 6 -164 4 -194 -12
-55 -29 -75 -64 -79 -141 -5 -119 18 -137 199 -158 115 -13 163 -28 202 -62
29 -25 20 -39 -29 -45 -46 -5 -88 -28 -108 -60 -15 -24 -7 -26 52 -14 67 14
151 -2 198 -38 45 -34 43 -45 -7 -45 -47 0 -143 -44 -218 -101 -27 -21 -65
-39 -83 -42 -18 -2 156 -5 387 -5 l420 -2 13 29 c7 16 37 46 67 67 30 20 55
41 55 46 0 17 -30 7 -62 -21 -52 -45 -109 -81 -129 -81 -10 0 -34 14 -54 31
-36 32 -59 34 -122 14 -18 -6 -23 -3 -23 11 0 30 41 79 94 115 28 19 77 57
109 86 36 33 73 57 100 64 59 16 178 5 267 -25 81 -28 160 -33 199 -13 14 6
34 27 44 45 17 29 18 39 9 71 -24 77 -91 106 -285 121 -198 15 -305 47 -379
114 -44 39 -107 135 -114 172 -3 19 -9 36 -13 38 -3 2 -30 -16 -60 -40z"/>
</g>
</svg>
