<?xml version="1.0" standalone="no"?>
<!DOCTYPE svg PUBLIC "-//W3C//DTD SVG 20010904//EN"
 "http://www.w3.org/TR/2001/REC-SVG-20010904/DTD/svg10.dtd">
<svg version="1.0" xmlns="http://www.w3.org/2000/svg"
 width="400.000000pt" height="400.000000pt" viewBox="0 0 400.000000 400.000000"
 preserveAspectRatio="xMidYMid meet">

<g transform="translate(0.000000,400.000000) scale(0.100000,-0.100000)"
fill="#000000" stroke="none">
<path d="M2290 3993 c-1 -7 -3 -18 -4 -23 0 -6 -8 -15 -16 -21 -12 -9 -11 -10
7 -6 15 3 20 1 16 -9 -3 -8 -9 -11 -14 -8 -5 3 -9 0 -9 -5 0 -6 5 -11 10 -11
6 0 10 -8 10 -17 0 -14 -2 -15 -9 -4 -15 23 -51 -4 -51 -39 0 -22 -5 -30 -17
-30 -15 0 -16 -2 -3 -10 13 -8 13 -10 -1 -10 -18 0 -29 20 -29 52 0 12 -3 19
-6 16 -8 -9 -12 -42 -5 -48 3 -3 5 -60 3 -128 l-3 -123 -47 1 c-26 1 -81 -3
-122 -8 -76 -10 -111 -2 -80 18 11 7 12 10 2 10 -8 0 -16 -9 -19 -20 -3 -11
-10 -20 -15 -20 -6 0 -9 39 -6 100 l3 100 -32 11 c-21 6 -33 17 -32 27 0 11 2
12 6 4 2 -6 9 -9 14 -6 6 3 2 12 -8 20 -15 11 -15 15 -4 23 8 5 9 11 3 15 -5
3 -15 -1 -22 -9 -15 -18 -34 -20 -24 -3 5 8 2 9 -9 5 -12 -5 -17 -1 -17 13 0
29 -25 37 -145 42 -66 4 -98 2 -80 -3 21 -5 10 -7 -35 -4 -36 3 -60 2 -55 0 6
-3 9 -21 7 -41 -4 -29 -9 -36 -33 -41 -25 -5 -29 -10 -29 -39 0 -29 -3 -33
-31 -36 l-32 -3 2 -107 c1 -70 -2 -108 -8 -108 -6 0 -11 -5 -11 -11 0 -5 5 -7
10 -4 6 3 10 -5 10 -19 0 -19 7 -26 30 -31 23 -5 30 -12 30 -31 0 -15 6 -24
15 -24 8 0 15 -9 15 -20 0 -11 -4 -20 -10 -20 -5 0 -7 7 -4 15 4 8 1 15 -6 15
-6 0 -9 -4 -6 -8 2 -4 1 -14 -5 -22 -7 -13 -9 -12 -9 2 0 12 -5 15 -16 11 -13
-5 -13 -7 -2 -14 8 -6 1 -9 -22 -9 -26 0 -31 -3 -22 -12 7 -7 12 -34 12 -61 0
-49 0 -49 -30 -45 -16 3 -30 1 -30 -4 0 -4 -9 -8 -20 -8 -13 0 -17 -5 -14 -14
3 -8 -2 -16 -13 -19 -16 -4 -16 -5 0 -6 10 -1 17 -9 17 -22 0 -14 -5 -19 -16
-17 -23 4 -31 78 -9 78 20 0 19 14 -2 31 -15 12 -16 12 -10 -4 4 -11 1 -20 -8
-23 -19 -8 -21 -95 -2 -91 9 1 12 -32 12 -140 0 -77 4 -139 9 -136 4 3 12 -1
17 -8 5 -8 9 -228 9 -489 -1 -319 3 -476 10 -478 5 -2 10 -11 10 -20 0 -14 2
-14 9 -3 11 18 31 5 31 -19 0 -14 12 -23 41 -32 33 -9 38 -13 23 -19 -12 -4
-2 -7 26 -6 28 0 91 -16 165 -42 66 -24 147 -50 180 -59 l60 -16 -60 -9 c-33
-4 -75 -6 -92 -4 -31 3 -33 1 -33 -29 0 -18 6 -34 14 -37 7 -3 134 5 282 19
356 32 334 32 334 -11 0 -32 -2 -35 -30 -35 -28 0 -30 -3 -30 -35 0 -27 -4
-35 -17 -35 -10 0 -131 -9 -270 -21 -139 -12 -259 -19 -268 -16 -9 4 -15 19
-15 38 l0 32 -92 -7 c-84 -6 -101 -4 -167 19 -41 14 -76 25 -78 25 -2 0 -3
-15 -3 -33 0 -33 1 -34 74 -57 65 -20 87 -22 170 -17 l96 6 0 -33 c0 -19 6
-36 13 -38 6 -3 129 5 272 18 143 13 279 23 303 24 40 0 42 -1 42 -30 0 -27 3
-30 30 -30 28 0 30 -3 30 -35 0 -29 -4 -35 -22 -35 -12 0 -161 -12 -330 -26
-170 -14 -315 -23 -323 -20 -9 3 -15 18 -15 37 l0 32 -92 -7 c-84 -6 -101 -4
-167 19 -41 14 -76 25 -78 25 -2 0 -3 -17 -3 -37 0 -26 -3 -34 -9 -24 -5 8 -7
21 -3 30 3 9 2 13 -3 9 -11 -10 -15 -59 -5 -53 5 3 11 -18 13 -47 l3 -53 2 53
c1 28 6 52 10 52 5 0 35 -9 68 -21 51 -18 73 -20 162 -15 l102 6 0 -34 c0 -19
6 -36 13 -38 6 -3 228 14 492 36 l480 41 3 33 3 32 -60 -7 -61 -6 0 36 c0 31
3 36 28 39 22 2 28 8 30 35 3 26 8 32 30 35 23 3 27 8 30 41 4 44 4 44 94 50
l67 5 4 -57 c3 -48 4 -46 3 11 -1 39 3 70 9 72 5 2 4 5 -2 5 -7 1 -13 8 -13
17 0 26 25 9 31 -22 6 -27 7 -26 8 10 1 38 1 38 -31 32 -18 -3 -63 -8 -100
-12 -38 -4 -68 -11 -68 -15 0 -5 -13 -9 -30 -9 -28 0 -30 3 -30 35 0 32 2 35
30 35 28 0 30 3 30 36 l0 37 -47 -7 c-27 -3 -161 -15 -298 -26 -138 -11 -271
-23 -298 -26 l-47 -7 0 37 c0 25 4 36 15 36 11 0 15 11 15 36 l0 36 -40 -7
c-56 -10 -112 10 -108 38 3 20 10 22 77 24 45 1 77 6 81 14 5 6 15 9 24 6 9
-4 16 -3 16 2 0 12 281 30 303 19 12 -6 42 -6 81 1 100 18 106 16 106 -23 l0
-34 -90 -8 -90 -7 0 -33 0 -33 58 5 c31 3 68 7 82 9 14 2 58 -8 99 -21 71 -23
151 -30 198 -18 14 4 23 15 25 33 3 23 9 27 48 32 53 7 60 4 38 -17 -12 -13
-20 -14 -36 -5 -32 17 -40 13 -44 -24 -2 -22 0 -35 7 -35 7 0 10 12 7 30 -2
17 0 30 6 30 6 0 9 -8 7 -17 -1 -10 0 -13 2 -6 2 7 10 10 18 7 7 -3 22 -1 33
5 15 8 22 8 25 -2 3 -6 5 7 4 30 -2 32 -5 39 -14 31 -7 -6 -13 -7 -13 -2 -1
15 4 805 4 857 1 26 6 47 11 47 10 0 -15 20 -25 20 -3 0 -4 -191 -2 -424 1
-233 -1 -446 -7 -473 -6 -32 -9 110 -10 442 l-1 491 30 11 30 11 0 136 c0 102
-3 137 -13 143 -16 9 -29 53 -16 53 5 0 12 -12 15 -26 5 -17 10 -22 17 -15 7
7 7 14 -1 24 -7 8 -9 17 -5 20 3 4 -1 7 -11 7 -9 0 -14 5 -11 10 3 6 -1 10 -9
10 -9 0 -16 -7 -16 -15 0 -8 -5 -15 -11 -15 -5 0 -7 5 -3 12 5 8 2 9 -9 5 -35
-13 -47 3 -47 59 0 30 5 54 10 54 6 0 10 -4 10 -10 0 -5 5 -10 10 -10 15 0 12
33 -5 56 -8 10 -15 14 -15 7 0 -6 5 -15 10 -18 36 -22 -30 -26 -85 -5 -31 12
-33 30 -2 30 18 0 19 -2 7 -10 -9 -6 -10 -10 -3 -10 20 0 25 20 6 26 -10 3
-31 12 -48 19 -16 7 -40 16 -52 20 -13 3 -23 13 -23 21 0 13 2 13 16 0 17 -17
28 -21 20 -7 -3 5 1 14 8 20 19 16 32 -5 16 -24 -10 -12 -9 -15 8 -15 11 0 23
-6 25 -12 3 -7 4 0 3 16 -2 16 -13 36 -25 45 -17 13 -19 19 -9 29 7 8 9 13 3
12 -20 -4 -35 0 -35 10 0 7 14 9 38 5 27 -5 33 -4 22 4 -12 9 -13 11 -1 11 8
0 12 3 8 6 -3 4 1 13 9 21 8 9 12 18 9 21 -3 4 -10 0 -15 -8 -8 -12 -10 -12
-10 4 0 15 5 17 26 12 14 -4 23 -3 20 2 -3 5 1 9 9 9 8 0 15 -6 15 -14 0 -7 5
-13 10 -13 6 0 9 19 9 43 -1 23 -4 32 -6 20 -2 -13 -9 -23 -14 -23 -5 0 -9 59
-9 136 0 74 -3 133 -7 131 -16 -10 -51 12 -49 30 2 10 -2 21 -8 25 -6 5 5 6
24 3 33 -5 33 -5 9 5 -15 6 -29 19 -32 29 -6 23 -33 23 -33 0 0 -11 6 -15 16
-11 11 4 12 2 4 -7 -16 -17 -47 -2 -41 20 4 15 -3 21 -34 31 -23 6 -35 14 -28
18 6 4 -1 10 -18 13 -36 7 -56 -5 -23 -13 15 -4 -20 -10 -83 -14 -60 -5 -113
-4 -117 0 -4 5 -10 18 -13 29 -3 11 -6 14 -7 8z m-20 -113 c0 -5 -8 -10 -17
-10 -15 0 -16 2 -3 10 19 12 20 12 20 0z m339 -484 c-9 -8 -10 -7 -5 7 3 10 7
24 7 30 1 7 3 4 6 -7 3 -10 -1 -23 -8 -30z m141 -711 l0 -85 -30 0 c-27 0 -30
3 -30 30 0 34 0 34 -112 23 l-68 -6 0 -33 c0 -31 3 -34 30 -34 26 0 30 -3 30
-29 0 -25 -5 -31 -30 -36 -30 -6 -30 -8 -30 -71 0 -64 0 -64 29 -64 16 0 43 3
60 6 31 6 31 7 31 69 0 62 0 63 31 69 17 3 44 6 60 6 l29 0 0 -229 0 -230 -27
-3 c-23 -2 -29 -8 -31 -35 -4 -38 19 -33 -317 -63 -126 -12 -275 -25 -330 -30
-55 -5 -121 -9 -147 -10 -47 0 -48 1 -48 30 0 27 -3 30 -30 30 l-30 0 0 230 0
229 60 7 60 7 0 33 c0 31 3 34 30 34 27 0 30 -3 30 -30 0 -26 -5 -31 -30 -36
-30 -6 -30 -7 -30 -70 0 -71 0 -71 83 -58 l37 7 0 132 0 133 -47 -5 c-135 -11
-133 -11 -133 -49 0 -31 -2 -34 -30 -34 l-31 0 3 83 c3 78 4 82 26 83 13 1 26
-5 29 -13 8 -21 232 -9 250 13 12 16 27 18 183 29 52 3 110 8 129 11 19 2 38
0 41 -7 5 -7 43 -8 125 -3 100 6 118 10 122 24 3 12 11 16 24 13 10 -3 19 0
19 6 0 6 2 11 5 11 3 0 5 -38 5 -85z m-1227 -45 c15 0 17 -15 17 -165 l0 -165
-32 0 c-81 0 -78 -7 -78 177 l0 166 38 -7 c20 -3 45 -6 55 -6z m897 -1035 c0
-32 -2 -35 -30 -35 -26 0 -30 4 -30 28 0 35 6 42 37 42 20 0 23 -5 23 -35z"/>
<path d="M2220 2340 c0 -58 3 -70 16 -70 13 0 14 3 4 15 -7 9 -11 36 -8 70 1
30 0 55 -4 55 -5 0 -8 -31 -8 -70z"/>
<path d="M2283 2273 c9 -2 23 -2 30 0 6 3 -1 5 -18 5 -16 0 -22 -2 -12 -5z"/>
<path d="M2380 3990 c21 -7 22 -8 5 -10 l-20 -1 20 -9 c27 -12 43 -12 25 0
-12 8 -10 10 10 11 l25 1 -25 8 c-14 4 -34 8 -45 8 -16 0 -15 -2 5 -8z"/>
<path d="M2618 3993 c7 -3 16 -2 19 1 4 3 -2 6 -13 5 -11 0 -14 -3 -6 -6z"/>
<path d="M2660 3980 c0 -11 4 -20 9 -20 6 0 9 9 8 20 -1 11 -5 20 -9 20 -4 0
-8 -9 -8 -20z"/>
<path d="M2310 3975 c0 -8 2 -15 4 -15 2 0 6 7 10 15 3 8 1 15 -4 15 -6 0 -10
-7 -10 -15z"/>
<path d="M1440 3971 c0 -5 12 -11 28 -13 15 -2 26 -8 25 -13 -1 -6 25 -12 59
-13 50 -3 60 -1 55 11 -3 8 0 21 6 28 10 11 9 11 -4 1 -10 -7 -32 -12 -51 -10
-19 1 -39 -2 -46 -6 -7 -4 -10 -2 -7 6 4 10 -5 15 -30 16 -19 2 -35 -2 -35 -7z"/>
<path d="M2458 3973 c7 -3 16 -2 19 1 4 3 -2 6 -13 5 -11 0 -14 -3 -6 -6z"/>
<path d="M2586 3972 c-3 -5 7 -7 22 -5 24 3 25 2 7 -7 -17 -8 -17 -9 -2 -7 10
1 19 7 20 12 3 13 -39 19 -47 7z"/>
<path d="M2701 3966 c-9 -10 -8 -15 4 -20 10 -4 15 1 15 14 0 24 -4 25 -19 6z"/>
<path d="M2248 3963 c7 -3 16 -2 19 1 4 3 -2 6 -13 5 -11 0 -14 -3 -6 -6z"/>
<path d="M1610 3925 c-10 -12 -9 -15 7 -15 11 0 20 7 20 15 0 8 -4 15 -7 15
-4 0 -13 -7 -20 -15z"/>
<path d="M1712 3921 c-11 -7 -11 -9 2 -14 10 -4 16 -1 16 8 0 17 -1 17 -18 6z"/>
<path d="M1450 3910 c0 -6 7 -10 15 -10 8 0 15 2 15 4 0 2 -7 6 -15 10 -8 3
-15 1 -15 -4z"/>
<path d="M1746 3905 c-3 -8 -1 -15 4 -15 6 0 10 7 10 15 0 8 -2 15 -4 15 -2 0
-6 -7 -10 -15z"/>
<path d="M2161 3904 c0 -11 3 -14 6 -6 3 7 2 16 -1 19 -3 4 -6 -2 -5 -13z"/>
<path d="M2194 3878 c0 -27 4 -48 9 -48 9 0 8 37 -3 70 -6 19 -7 14 -6 -22z"/>
<path d="M2221 3904 c0 -11 3 -14 6 -6 3 7 2 16 -1 19 -3 4 -6 -2 -5 -13z"/>
<path d="M2245 3910 c3 -5 8 -10 11 -10 2 0 4 5 4 10 0 6 -5 10 -11 10 -5 0
-7 -4 -4 -10z"/>
<path d="M2690 3916 c0 -2 7 -7 16 -10 8 -3 12 -2 9 4 -6 10 -25 14 -25 6z"/>
<path d="M2700 3855 c0 -8 2 -15 4 -15 2 0 6 7 10 15 3 8 1 15 -4 15 -6 0 -10
-7 -10 -15z"/>
<path d="M1870 3834 c0 -9 7 -14 17 -12 25 5 28 28 4 28 -12 0 -21 -6 -21 -16z"/>
<path d="M1316 3824 c-4 -10 -1 -14 6 -12 15 5 23 28 10 28 -5 0 -13 -7 -16
-16z"/>
<path d="M1370 3830 c8 -5 10 -10 4 -10 -17 0 -26 -30 -14 -45 6 -8 6 -15 -2
-23 -9 -9 -9 -12 0 -12 7 0 13 5 13 10 1 6 2 16 3 23 1 6 -3 15 -9 19 -6 5 -6
8 2 8 7 0 17 9 23 20 9 17 8 20 -12 20 -19 0 -20 -2 -8 -10z"/>
<path d="M1423 3833 c-15 -5 -17 -23 -4 -23 5 0 11 7 15 15 3 8 4 15 3 14 -1
0 -8 -3 -14 -6z"/>
<path d="M2746 3803 c6 -49 14 -55 14 -10 0 20 -4 38 -9 42 -6 3 -8 -10 -5
-32z"/>
<path d="M2776 3760 c-6 -68 -3 -214 5 -240 5 -16 17 64 16 110 l0 55 -7 -45
c-6 -39 -7 -34 -8 37 -1 45 2 83 7 85 5 2 6 21 2 43 -7 36 -8 31 -15 -45z"/>
<path d="M2861 3758 c0 -43 2 -78 7 -78 4 0 6 24 4 52 -5 95 -9 104 -11 26z"/>
<path d="M2085 3790 c3 -5 13 -10 21 -10 8 0 14 5 14 10 0 6 -9 10 -21 10 -11
0 -17 -4 -14 -10z"/>
<path d="M1876 3771 c-3 -5 0 -11 8 -14 15 -6 26 1 26 15 0 11 -27 10 -34 -1z"/>
<path d="M1290 3740 c8 -5 20 -10 25 -10 6 0 3 5 -5 10 -8 5 -19 10 -25 10 -5
0 -3 -5 5 -10z"/>
<path d="M1907 3743 c-4 -3 -7 -11 -7 -17 0 -6 5 -5 12 2 6 6 9 14 7 17 -3 3
-9 2 -12 -2z"/>
<path d="M2134 3727 c8 -25 -15 -48 -37 -35 -13 7 -17 5 -17 -6 0 -16 24 -17
45 -4 6 4 12 -4 13 -18 2 -23 0 -24 -64 -24 -41 0 -63 -4 -59 -10 3 -5 37 -10
76 -10 l69 0 0 43 c0 25 -7 52 -16 63 -14 17 -15 17 -10 1z"/>
<path d="M1287 3713 c3 -10 10 -23 14 -28 4 -6 10 -47 12 -90 l3 -80 2 88 c1
64 -1 87 -10 87 -10 0 -9 3 1 9 11 7 9 11 -7 20 -19 10 -21 9 -15 -6z"/>
<path d="M1898 3705 c-6 -7 0 -96 7 -103 3 -3 5 10 5 29 0 19 3 44 6 57 6 20
-5 30 -18 17z"/>
<path d="M1968 3673 c7 -3 16 -2 19 1 4 3 -2 6 -13 5 -11 0 -14 -3 -6 -6z"/>
<path d="M2020 3669 c0 -5 5 -7 10 -4 6 3 10 8 10 11 0 2 -4 4 -10 4 -5 0 -10
-5 -10 -11z"/>
<path d="M2866 3632 c-5 -18 -5 -36 -2 -39 7 -7 19 43 13 59 -2 7 -7 -2 -11
-20z"/>
<path d="M1930 3615 c-11 -13 -8 -15 19 -15 21 0 31 5 31 15 0 8 -8 15 -19 15
-10 0 -24 -7 -31 -15z"/>
<path d="M2128 3583 c6 -2 18 -2 25 0 6 3 1 5 -13 5 -14 0 -19 -2 -12 -5z"/>
<path d="M2008 3573 c6 -2 18 -2 25 0 6 3 1 5 -13 5 -14 0 -19 -2 -12 -5z"/>
<path d="M1284 3495 c-1 -14 2 -22 7 -19 11 6 12 44 2 44 -5 0 -9 -11 -9 -25z"/>
<path d="M1290 3455 c-11 -13 -10 -14 4 -9 9 3 16 10 16 15 0 13 -6 11 -20 -6z"/>
<path d="M2693 3457 c1 -7 7 -15 12 -19 7 -5 6 -14 -2 -27 -11 -18 -8 -31 8
-31 13 0 6 79 -8 84 -7 3 -12 0 -10 -7z"/>
<path d="M1318 3402 c-10 -8 -17 -20 -14 -28 3 -8 -1 -14 -9 -14 -7 0 -16 -4
-19 -8 -3 -5 9 -6 26 -4 19 3 32 12 35 23 4 14 11 17 32 13 18 -4 22 -3 12 4
-7 5 -11 14 -7 20 9 15 -32 11 -56 -6z"/>
<path d="M2690 3356 c0 -2 7 -7 16 -10 8 -3 12 -2 9 4 -6 10 -25 14 -25 6z"/>
<path d="M1275 3291 c-10 -12 -26 -19 -35 -16 -11 3 -16 -1 -17 -15 -1 -11 1
-20 5 -21 57 -8 81 -7 70 5 -7 7 -21 12 -32 11 -14 -2 -15 -1 -3 2 9 2 17 12
17 21 0 14 2 15 10 2 12 -19 19 -10 11 13 -6 17 -8 17 -26 -2z"/>
<path d="M2812 3245 c0 -16 2 -22 5 -12 2 9 2 23 0 30 -3 6 -5 -1 -5 -18z"/>
<path d="M2770 3207 l0 -35 53 2 c54 1 78 21 26 21 -15 0 -25 -3 -22 -7 6 -11
-19 -10 -36 1 -8 5 -11 16 -8 25 3 8 2 18 -3 21 -6 4 -10 -9 -10 -28z"/>
<path d="M2900 3001 c0 -23 5 -41 10 -41 6 0 10 15 10 34 0 19 -4 38 -10 41
-6 4 -10 -10 -10 -34z"/>
<path d="M2954 2920 c0 -69 1 -97 3 -62 2 34 2 90 0 125 -2 34 -3 6 -3 -63z"/>
<path d="M1130 2869 c0 -5 5 -7 10 -4 6 3 10 8 10 11 0 2 -4 4 -10 4 -5 0 -10
-5 -10 -11z"/>
<path d="M2907 2873 c-11 -10 -8 -73 3 -73 6 0 10 18 10 40 0 41 -2 45 -13 33z"/>
<path d="M1200 2816 c0 -8 -6 -16 -12 -19 -10 -3 -10 -7 0 -19 7 -9 9 -18 5
-20 -4 -3 -2 -3 6 -1 8 2 18 -2 22 -9 5 -8 8 -5 6 9 0 12 -4 20 -8 17 -4 -2
-9 3 -13 11 -3 8 -1 17 4 20 13 8 13 25 0 25 -5 0 -10 -6 -10 -14z"/>
<path d="M1120 2780 c0 -11 5 -20 10 -20 6 0 10 9 10 20 0 11 -4 20 -10 20 -5
0 -10 -9 -10 -20z"/>
<path d="M2851 2781 l-21 -18 24 0 c18 0 24 5 23 18 -1 11 -2 19 -3 19 0 0
-11 -8 -23 -19z"/>
<path d="M1150 2779 c0 -5 5 -7 10 -4 6 3 10 8 10 11 0 2 -4 4 -10 4 -5 0 -10
-5 -10 -11z"/>
<path d="M1191 2726 c-15 -17 -11 -318 4 -323 6 -2 8 26 5 77 -3 44 -2 80 2
80 6 0 7 180 2 180 -1 0 -7 -6 -13 -14z"/>
<path d="M1223 2680 c0 -25 2 -35 4 -22 2 12 2 32 0 45 -2 12 -4 2 -4 -23z"/>
<path d="M2870 2678 c-3 -26 -1 -43 3 -39 5 5 7 26 5 47 l-3 39 -5 -47z"/>
<path d="M2862 2546 c0 -36 4 -66 8 -66 9 0 5 119 -4 127 -2 3 -4 -25 -4 -61z"/>
<path d="M2862 2365 c1 -19 4 -32 8 -30 10 6 10 65 0 65 -5 0 -9 -16 -8 -35z"/>
<path d="M1204 2148 c1 -184 4 -242 14 -245 6 -3 12 0 12 7 0 6 -5 8 -11 5 -7
-5 -9 65 -7 228 1 130 0 238 -3 241 -3 3 -5 -103 -5 -236z"/>
<path d="M1161 2003 c0 -39 2 -74 7 -76 4 -3 6 18 4 46 -5 92 -9 104 -11 30z"/>
<path d="M2863 1977 c0 -54 4 -94 7 -90 4 5 4 49 0 98 l-7 90 0 -98z"/>
<path d="M1146 1907 c3 -10 9 -15 12 -12 3 3 0 11 -7 18 -10 9 -11 8 -5 -6z"/>
<path d="M1165 1868 c-8 -40 -1 -58 21 -58 12 0 19 19 15 43 -2 11 27 8 32 -3
3 -6 4 -5 3 2 -2 7 -13 13 -26 13 -14 0 -26 8 -30 20 -6 16 -9 13 -15 -17z
m25 -29 c0 -10 -4 -19 -10 -19 -5 0 -10 12 -10 26 0 14 4 23 10 19 6 -3 10
-15 10 -26z"/>
<path d="M1120 1860 c0 -11 5 -20 10 -20 6 0 10 9 10 20 0 11 -4 20 -10 20 -5
0 -10 -9 -10 -20z"/>
<path d="M1275 1810 c3 -5 8 -10 11 -10 2 0 4 5 4 10 0 6 -5 10 -11 10 -5 0
-7 -4 -4 -10z"/>
<path d="M1184 1792 c3 -5 0 -13 -6 -15 -9 -4 -10 -6 -1 -6 17 -1 25 16 12 25
-7 4 -9 3 -5 -4z"/>
<path d="M1206 1778 c-9 -34 -7 -38 9 -32 19 8 19 -13 0 -50 -17 -32 -19 -83
-6 -105 8 -12 11 -9 16 12 4 15 5 41 3 57 -3 17 -1 30 3 30 5 0 13 9 19 20 12
22 -6 50 -32 50 -9 1 -7 5 4 14 10 7 15 16 11 19 -12 12 -21 7 -27 -15z"/>
<path d="M1293 1776 c11 -8 15 -20 11 -31 -5 -13 -2 -16 17 -13 30 4 39 38 10
38 -11 0 -23 5 -26 10 -3 6 -12 10 -18 10 -7 0 -4 -7 6 -14z"/>
<path d="M1250 1770 c0 -5 5 -10 11 -10 5 0 7 5 4 10 -3 6 -8 10 -11 10 -2 0
-4 -4 -4 -10z"/>
<path d="M1387 1763 c-15 -14 -6 -33 15 -33 21 0 21 0 2 15 -18 15 -18 15 0 8
13 -4 17 -3 12 5 -8 13 -19 15 -29 5z"/>
<path d="M2823 1720 c1 -10 5 -16 11 -13 5 4 7 0 4 -9 -4 -8 0 -15 8 -15 7 0
11 4 8 9 -3 4 0 8 5 8 6 0 11 -5 11 -12 0 -6 2 -9 5 -6 9 8 -6 38 -16 32 -5
-3 -9 -1 -9 4 0 6 -6 12 -14 15 -10 4 -14 0 -13 -13z"/>
<path d="M1368 1723 c6 -2 10 -9 6 -14 -3 -5 2 -9 10 -9 9 0 16 4 16 9 0 9
-25 22 -38 20 -4 0 -1 -3 6 -6z"/>
<path d="M1303 1713 c9 -2 25 -2 35 0 9 3 1 5 -18 5 -19 0 -27 -2 -17 -5z"/>
<path d="M1418 1703 c7 -3 16 -2 19 1 4 3 -2 6 -13 5 -11 0 -14 -3 -6 -6z"/>
<path d="M2760 1698 c0 -4 9 -12 20 -18 14 -7 20 -7 20 0 0 5 -6 10 -12 10 -9
0 -8 3 2 10 12 7 10 9 -8 7 -12 0 -22 -5 -22 -9z"/>
<path d="M1288 1693 c7 -3 16 -2 19 1 4 3 -2 6 -13 5 -11 0 -14 -3 -6 -6z"/>
<path d="M0 840 l0 -840 751 0 c711 0 751 1 745 18 -6 16 -5 16 8 0 12 -16 37
-18 274 -18 l262 0 3 173 3 172 2 -172 2 -173 655 0 655 0 0 80 0 80 -40 0
-40 0 0 200 0 200 -40 0 -40 0 0 80 0 80 -40 0 -40 0 0 40 0 40 -80 0 -80 0 0
40 c0 40 0 40 -39 40 l-40 0 -3 -120 c-2 -73 1 -121 7 -123 5 -2 2 -11 -8 -21
-9 -10 -17 -12 -17 -6 0 6 -5 8 -11 4 -6 -3 -4 5 5 18 23 36 20 333 -4 333
-11 0 -16 18 -21 75 l-5 75 -2 -77 c-2 -83 -18 -106 -25 -35 -2 23 -4 -65 -5
-196 -1 -212 1 -238 15 -233 11 5 14 2 9 -10 -4 -12 -2 -15 9 -10 10 4 15 -1
15 -15 0 -11 5 -17 10 -14 5 3 10 -2 10 -11 0 -16 -1 -16 -20 1 -20 18 -20 18
-18 -171 l2 -189 6 175 6 175 2 -170 c2 -189 1 -194 -57 -196 -31 -1 -33 -2
-11 -8 14 -3 26 -12 28 -18 1 -9 -13 -13 -50 -12 -53 2 -53 2 -13 8 l40 7 -55
6 c-107 12 -162 9 -176 -10 -23 -31 -29 -2 -29 131 0 124 1 132 20 135 69 10
65 3 65 113 l0 100 -47 -6 c-27 -3 -151 -14 -278 -25 -126 -10 -315 -27 -419
-36 -104 -9 -202 -14 -218 -12 l-29 5 3 -106 c3 -103 4 -105 28 -111 25 -6 25
-7 28 -123 2 -90 0 -117 -10 -117 -7 -1 -44 -5 -83 -10 -38 -5 -92 -12 -120
-15 -27 -4 -55 -8 -62 -10 -10 -3 -168 46 -177 56 -2 2 -6 95 -8 207 l-3 202
26 0 c14 0 28 3 31 6 11 10 -4 43 -21 47 -12 4 -11 5 4 6 20 1 20 7 17 256 -1
140 -5 261 -8 270 -4 8 -4 24 -1 35 3 11 1 18 -4 14 -5 -3 -9 -15 -9 -28 0
-13 -9 -31 -20 -41 -20 -18 -20 -17 -19 21 0 37 1 38 11 14 11 -24 11 -24 19
15 6 31 4 43 -8 52 -12 9 -13 16 -6 25 16 20 20 104 6 117 -7 7 -13 17 -12 24
0 9 2 9 6 0 6 -16 23 -17 23 -3 0 6 -10 15 -22 19 -20 8 -21 10 -5 16 24 10
26 100 1 91 -10 -4 -14 -2 -11 6 2 7 10 12 16 10 19 -4 41 24 40 50 -1 22 -1
21 -11 -4 -5 -16 -14 -28 -19 -28 -11 0 -12 14 -2 24 11 11 13 45 3 51 -6 3
-10 0 -10 -7 0 -9 -3 -9 -10 2 -9 13 -10 13 -10 -1 0 -8 6 -21 13 -28 10 -11
9 -13 -6 -7 -10 3 -22 6 -27 6 -5 0 -11 17 -13 38 l-4 37 -1 -37 c-2 -31 -6
-38 -22 -38 -17 0 -20 7 -20 40 0 29 4 40 15 40 9 0 15 9 15 25 0 16 -6 25
-15 25 -9 0 -15 -9 -15 -25 0 -22 -4 -25 -40 -25 l-40 0 0 -40 0 -40 -40 0
-40 0 0 40 0 40 -40 0 -40 0 0 40 0 40 -80 0 -80 0 0 -40 0 -40 -40 0 -40 0 0
40 0 40 -160 0 -160 0 0 -40 0 -40 -80 0 -80 0 0 40 0 40 -80 0 -80 0 0 -840z
m1240 -200 c6 0 10 -18 10 -40 0 -22 -4 -40 -9 -40 -14 0 -21 114 -19 304 l3
181 2 -202 c2 -124 7 -203 13 -203z m-58 352 c3 -22 0 -28 -14 -28 -21 0 -22
9 -8 37 14 25 17 24 22 -9z m-79 -359 c-13 -2 -33 -2 -45 0 -13 2 -3 4 22 4
25 0 35 -2 23 -4z m104 -55 c-2 -13 -4 -3 -4 22 0 25 2 35 4 23 2 -13 2 -33 0
-45z m-53 -18 c-3 -2 -9 2 -14 10 -8 13 -10 13 -10 1 0 -8 -3 -12 -6 -8 -4 3
-4 14 0 23 6 16 8 15 20 -2 8 -10 12 -21 10 -24z m73 -46 c-3 -3 -12 -4 -19
-1 -8 3 -5 6 6 6 11 1 17 -2 13 -5z m1650 -91 c-2 -16 -4 -5 -4 22 0 28 2 40
4 28 2 -13 2 -35 0 -50z m-884 -138 c-7 -21 -13 -19 -13 6 0 11 4 18 10 14 5
-3 7 -12 3 -20z m-6 -162 c-2 -27 -3 -5 -3 47 0 52 1 74 3 48 2 -27 2 -69 0
-95z m843 -8 c-7 -9 -15 -13 -19 -10 -3 3 1 10 9 15 21 14 24 12 10 -5z m-243
-1 c-3 -3 -12 -4 -19 -1 -8 3 -5 6 6 6 11 1 17 -2 13 -5z m96 -1 c-7 -2 -21
-2 -30 0 -10 3 -4 5 12 5 17 0 24 -2 18 -5z m196 -17 c-2 -2 -15 -7 -29 -10
l-25 -7 25 20 c14 11 27 15 29 10 1 -6 1 -12 0 -13z m-196 -3 c-7 -2 -21 -2
-30 0 -10 3 -4 5 12 5 17 0 24 -2 18 -5z m180 -40 c-7 -2 -19 -2 -25 0 -7 3
-2 5 12 5 14 0 19 -2 13 -5z"/>
<path d="M1263 1630 c0 -30 2 -43 4 -27 2 15 2 39 0 55 -2 15 -4 2 -4 -28z"/>
<path d="M2768 1633 c6 -2 18 -2 25 0 6 3 1 5 -13 5 -14 0 -19 -2 -12 -5z"/>
<path d="M2817 1634 c-3 -6 6 -26 22 -44 26 -32 50 -31 30 0 -7 13 -9 13 -9 0
-1 -12 -3 -11 -11 3 -5 9 -7 22 -3 29 4 6 3 8 -4 4 -5 -3 -12 -1 -14 6 -3 8
-7 8 -11 2z"/>
<path d="M1236 1592 c-4 -7 0 -19 8 -28 17 -17 19 -11 7 20 -5 14 -10 16 -15
8z"/>
<path d="M2833 1545 c-3 -9 -3 -18 -1 -21 3 -3 8 4 11 16 6 23 -1 27 -10 5z"/>
<path d="M2787 1493 c7 -68 -6 -79 -107 -88 l-80 -7 0 -30 0 -31 76 5 c50 3
79 10 85 19 7 11 11 10 23 -6 15 -20 15 -20 16 3 0 13 -4 20 -10 17 -5 -3 -10
1 -10 9 0 9 4 16 9 16 5 0 8 8 7 17 -2 10 0 32 4 49 4 19 2 40 -5 54 -11 20
-12 17 -8 -27z m-20 -105 c-3 -8 -6 -5 -6 6 -1 11 2 17 5 13 3 -3 4 -12 1 -19z"/>
<path d="M2805 1530 c3 -5 8 -10 11 -10 2 0 4 5 4 10 0 6 -5 10 -11 10 -5 0
-7 -4 -4 -10z"/>
<path d="M2864 1471 c4 -5 1 -11 -5 -13 -9 -3 -9 -10 0 -27 7 -13 17 -19 21
-15 11 11 1 64 -12 64 -5 0 -7 -4 -4 -9z"/>
<path d="M1258 1413 l-1 -58 -6 50 -7 50 -4 -53 c-5 -54 5 -77 21 -51 9 15 13
119 4 119 -3 0 -6 -26 -7 -57z"/>
<path d="M2822 1410 c1 -35 7 -34 14 4 2 14 0 26 -5 26 -5 0 -9 -14 -9 -30z"/>
<path d="M2820 1335 c0 -22 4 -34 10 -30 6 3 10 17 10 30 0 13 -4 27 -10 30
-6 4 -10 -8 -10 -30z"/>
<path d="M2869 1350 c0 -3 -2 -13 -4 -22 -2 -10 3 -18 11 -18 8 0 14 3 14 8 0
9 -19 39 -21 32z"/>
<path d="M2760 1334 c0 -3 7 -12 15 -20 17 -17 20 -34 6 -34 -5 0 -12 8 -14
18 -3 9 -4 5 -4 -9 1 -20 5 -25 19 -21 21 5 24 42 6 60 -13 13 -28 16 -28 6z"/>
<path d="M2860 1285 c-10 -12 -9 -16 4 -21 9 -4 20 -3 24 1 4 4 1 10 -6 12 -6
3 -10 9 -6 14 9 14 -2 10 -16 -6z"/>
<path d="M2785 1250 c-5 -8 -1 -18 10 -27 16 -11 17 -13 2 -13 -9 0 -21 8 -26
18 -9 15 -10 15 -11 1 0 -13 -16 -18 -80 -23 l-80 -7 0 -31 0 -30 76 4 c78 4
99 15 90 50 -3 14 1 17 18 12 25 -6 55 19 36 31 -5 3 -10 3 -11 -2 0 -4 -4 1
-8 11 -6 15 -9 17 -16 6z"/>
<path d="M1236 1192 c-4 -7 0 -19 8 -28 17 -17 19 -11 7 20 -5 14 -10 16 -15
8z"/>
<path d="M2857 1170 c3 -11 9 -20 14 -20 5 0 9 9 9 20 0 11 -6 20 -14 20 -9 0
-12 -7 -9 -20z"/>
<path d="M2766 1154 c-11 -27 -7 -532 4 -539 7 -4 10 82 10 250 0 191 3 254
12 249 7 -4 8 -3 4 5 -4 6 -12 9 -17 6 -5 -4 -9 -1 -9 4 0 6 8 11 18 11 13 0
14 2 3 9 -11 7 -11 9 0 14 10 4 10 6 -2 6 -9 1 -20 -6 -23 -15z"/>
<path d="M1270 1108 c0 -23 3 -39 6 -36 3 4 37 -4 75 -17 39 -14 82 -22 97
-20 15 2 58 7 96 10 l68 6 -4 -26 c-8 -38 13 -54 64 -48 24 3 241 21 483 42
l440 36 3 34 3 34 -48 -6 c-132 -17 -915 -78 -928 -73 -9 3 -15 18 -15 37 l0
32 -94 -7 c-85 -6 -101 -4 -164 19 -38 14 -72 25 -76 25 -3 0 -6 -19 -6 -42z"/>
<path d="M2105 879 c-236 -22 -444 -38 -462 -36 -23 2 -33 -2 -36 -13 -5 -22
3 -48 16 -52 12 -4 914 70 955 78 17 3 22 11 22 34 0 37 51 38 -495 -11z"/>
<path d="M2395 704 c-458 -41 -750 -64 -765 -59 -14 4 -19 -1 -22 -26 -8 -50
-54 -50 557 1 465 38 435 34 435 70 0 35 12 34 -205 14z"/>
</g>
</svg>
