<?xml version="1.0" standalone="no"?>
<!DOCTYPE svg PUBLIC "-//W3C//DTD SVG 20010904//EN"
 "http://www.w3.org/TR/2001/REC-SVG-20010904/DTD/svg10.dtd">
<svg version="1.0" xmlns="http://www.w3.org/2000/svg"
 width="400.000000pt" height="400.000000pt" viewBox="0 0 400.000000 400.000000"
 preserveAspectRatio="xMidYMid meet">

<g transform="translate(0.000000,400.000000) scale(0.100000,-0.100000)"
fill="#000000" stroke="none">
<path d="M0 3427 l0 -572 34 -19 c32 -17 33 -20 19 -34 -12 -12 -12 -17 -3
-20 7 -3 16 1 20 8 6 9 13 9 29 1 23 -13 28 -23 8 -20 -6 1 -33 1 -59 0 l-48
-1 0 -199 c0 -151 3 -200 13 -204 9 -3 9 -7 0 -18 -16 -20 -19 -709 -2 -709 6
0 9 -10 8 -22 -2 -13 1 -29 5 -37 7 -11 5 -13 -10 -7 -15 6 -17 5 -7 -5 15
-15 17 -33 3 -24 -6 4 -10 -7 -10 -25 0 -27 3 -30 20 -25 15 5 18 3 14 -9 -3
-9 -12 -16 -20 -16 -12 0 -14 -113 -14 -735 l0 -735 2000 0 2000 0 0 816 c0
713 -2 815 -15 811 -8 -4 -17 -1 -21 4 -3 6 -15 9 -25 6 -10 -3 -19 -1 -21 5
-2 5 -30 11 -63 14 -33 3 -82 13 -108 21 -27 8 -51 12 -54 9 -4 -3 -15 1 -25
11 -10 9 -18 12 -18 7 0 -4 -11 7 -24 26 -32 46 -20 71 32 69 23 -1 29 -3 14
-6 -44 -9 -16 -41 45 -50 21 -3 43 -10 50 -15 7 -5 14 -5 18 2 3 5 -1 10 -10
10 -12 0 -15 5 -11 16 3 9 6 22 6 31 0 29 28 -13 32 -47 2 -19 9 -35 18 -37
13 -4 13 -3 0 6 -12 8 -9 10 15 10 17 -1 44 1 60 5 19 4 25 3 17 -2 -9 -6 0
-11 30 -15 28 -4 45 -2 50 6 4 7 7 123 8 259 0 188 -3 248 -13 251 -9 4 -9 6
1 6 9 1 12 162 12 771 l0 771 -55 -56 c-30 -31 -55 -61 -55 -66 0 -5 -7 -9
-15 -9 -20 0 -19 10 5 40 22 28 27 55 8 44 -8 -4 -10 -3 -5 2 5 5 12 9 17 9 9
0 42 34 77 79 18 22 22 41 22 106 l0 80 -82 0 c-69 0 -87 -3 -104 -19 -12 -11
-24 -17 -27 -14 -3 4 -6 2 -6 -4 0 -5 -6 -10 -12 -10 -7 0 -22 -4 -33 -7 -11
-4 5 7 35 23 l55 31 -90 -3 c-49 -1 -99 -7 -109 -12 -15 -6 -17 -5 -11 5 5 9
4 11 -4 6 -6 -4 -9 -11 -7 -15 3 -4 -12 -16 -32 -25 -20 -10 -34 -15 -30 -10
4 4 0 13 -10 21 -9 8 -12 12 -6 9 6 -3 11 1 11 9 0 13 -233 15 -1769 15
l-1768 0 0 -573z m2904 557 c25 -10 22 -86 -5 -102 -12 -7 -23 -11 -25 -9 -5
4 7 117 12 117 1 0 9 -3 18 -6z m-47 -65 c-6 -68 -30 -107 -47 -79 -15 23 -3
113 17 128 31 22 36 14 30 -49z m664 27 c9 -19 9 -20 -4 -3 -13 15 -15 16 -21
2 -8 -21 -26 -19 -26 3 0 38 32 36 51 -2z m175 -21 c-11 -8 -24 -15 -30 -15
-5 0 -1 7 10 15 10 8 24 14 29 14 6 0 1 -6 -9 -14z m294 -41 c0 -8 -19 -13
-24 -6 -3 5 1 9 9 9 8 0 15 -2 15 -3z m-60 -39 c-7 -8 -9 -15 -6 -15 4 0 2 -9
-4 -20 -6 -11 -15 -18 -20 -15 -5 3 -12 0 -16 -6 -4 -8 -3 -9 4 -5 17 10 14
-6 -5 -29 -12 -15 -14 -16 -10 -3 4 12 2 15 -9 11 -7 -3 -14 0 -14 6 0 6 5 11
11 11 5 0 7 5 4 10 -3 6 1 13 9 16 9 3 14 10 11 14 -3 5 -1 12 5 15 6 4 9 3 8
-2 -2 -4 2 -9 7 -9 6 -1 9 3 7 9 -2 5 3 14 10 18 19 13 22 11 8 -6z m-760 -77
c0 -5 -4 -6 -10 -3 -9 6 -14 -7 -11 -27 0 -4 -18 -17 -40 -29 -26 -13 -39 -16
-34 -7 3 7 -1 4 -9 -6 -9 -11 -16 -17 -16 -13 0 4 -9 -2 -21 -14 -11 -11 -27
-18 -35 -15 -8 3 -13 2 -10 -3 3 -5 -1 -12 -10 -15 -10 -4 -13 -2 -8 7 4 6 -3
2 -15 -10 -12 -13 -26 -23 -31 -23 -5 0 -15 10 -21 23 -11 20 -11 21 5 8 14
-12 16 -12 10 2 -4 11 6 22 35 37 23 11 41 17 41 13 0 -5 5 0 11 10 6 9 14 15
20 12 5 -4 9 -2 9 3 0 6 7 13 16 16 12 5 14 3 8 -7 -5 -7 -2 -5 7 5 9 9 19 14
23 11 3 -4 6 -1 6 6 0 7 4 9 10 6 13 -8 52 19 43 29 -4 4 0 4 10 0 9 -3 17
-10 17 -16z m-1988 -98 c5 0 16 -7 24 -15 14 -13 12 -15 -15 -15 -27 0 -31 3
-30 28 0 15 3 21 6 15 2 -7 9 -13 15 -13z m-45 -12 c-3 -8 -6 -5 -6 6 -1 11 2
17 5 13 3 -3 4 -12 1 -19z m2646 -23 c-3 -9 -8 -14 -10 -11 -3 3 -2 9 2 15 9
16 15 13 8 -4z m-899 -25 c-6 -6 -10 -3 -10 10 0 13 4 16 10 10 7 -7 7 -13 0
-20z m-1737 14 c-3 -3 -12 -4 -19 -1 -8 3 -5 6 6 6 11 1 17 -2 13 -5z m58 -4
c4 -6 -5 -10 -19 -10 -14 0 -26 5 -26 10 0 6 9 10 19 10 11 0 23 -4 26 -10z
m2306 -7 c13 -16 12 -17 -3 -4 -17 13 -22 21 -14 21 2 0 10 -8 17 -17z m-446
-3 c-3 -5 -12 -10 -18 -10 -7 0 -6 4 3 10 19 12 23 12 15 0z m295 -20 c0 -5
-2 -10 -4 -10 -3 0 -8 5 -11 10 -3 6 -1 10 4 10 6 0 11 -4 11 -10z m-355 -10
c-3 -5 -12 -10 -18 -10 -7 0 -6 4 3 10 19 12 23 12 15 0z m320 -10 c-3 -5 3
-13 12 -19 15 -9 12 -12 -12 -11 -3 0 -21 -15 -40 -35 -20 -19 -38 -35 -42
-35 -8 0 -44 -40 -73 -83 -30 -44 -40 -47 -37 -8 1 16 5 27 8 25 10 -6 20 26
12 39 -3 7 -3 9 2 5 4 -4 23 13 42 38 22 29 40 43 50 40 8 -4 11 -1 8 5 -9 13
25 38 42 32 7 -3 13 2 13 12 0 9 5 13 10 10 6 -4 8 -10 5 -15z m-99 -2 c4 -7
3 -8 -4 -4 -7 4 -17 4 -23 0 -8 -5 -8 -8 0 -14 8 -5 3 -17 -17 -38 -16 -17
-27 -34 -24 -37 3 -3 0 -5 -6 -5 -7 0 -12 -9 -12 -21 0 -11 -5 -17 -10 -14 -7
4 -7 13 0 26 6 10 7 19 3 19 -4 0 3 8 17 18 14 9 27 26 28 37 7 38 34 57 48
33z m-533 -61 c-2 -4 -3 -11 -3 -15 0 -4 -10 -9 -22 -9 -13 -1 -28 -9 -34 -17
-6 -9 -14 -13 -17 -9 -4 3 -7 1 -7 -5 0 -7 -9 -12 -20 -12 -11 0 -20 5 -20 11
0 5 -4 7 -10 4 -5 -3 -10 -4 -10 -1 0 10 57 35 64 29 3 -4 6 -1 6 6 0 7 5 9
10 6 6 -3 10 -1 10 5 0 6 5 8 10 5 6 -3 10 -2 10 4 0 5 8 8 18 7 9 -2 16 -6
15 -9z m1110 -140 c-2 -4 -8 -5 -12 -2 -5 2 -7 -10 -6 -28 1 -22 -5 -38 -19
-50 -19 -16 -19 -17 -2 -10 16 5 18 3 13 -11 -4 -10 -7 -22 -7 -27 0 -6 -5 -7
-11 -3 -8 4 -8 0 0 -15 8 -14 8 -21 1 -21 -5 0 -10 -8 -10 -17 0 -16 2 -16 11
-3 11 15 10 8 -6 -275 -5 -89 -9 -128 -15 -145 -1 -3 -1 -24 0 -47 1 -40 -1
-43 -40 -62 -35 -17 -42 -18 -47 -5 -3 8 1 20 10 27 29 23 35 82 16 144 -8 26
-17 34 -47 39 -21 4 -48 2 -66 -5 -17 -7 -42 -14 -56 -17 -14 -2 -30 -6 -37
-9 -6 -2 -17 3 -23 11 -11 12 -4 14 41 15 30 0 49 3 43 5 -7 3 -9 38 -6 107 5
110 19 141 59 131 13 -4 20 0 20 10 0 15 -15 21 -45 17 -19 -3 3 35 28 49 11
6 20 18 20 26 0 8 -4 13 -9 10 -5 -3 -14 1 -21 10 -7 8 -19 13 -26 10 -8 -3
-15 7 -20 27 -3 18 -11 35 -17 39 -18 11 -7 16 134 61 95 30 137 40 145 32 7
-5 10 -13 7 -18z m-1673 -138 c0 -5 -4 -9 -10 -9 -5 0 -10 7 -10 16 0 8 5 12
10 9 6 -3 10 -10 10 -16z m-630 2 c0 -6 9 -8 20 -6 22 4 25 -2 11 -24 -8 -13
-12 -13 -26 -1 -14 12 -18 12 -26 -1 -6 -10 -9 -7 -9 14 0 17 5 27 15 27 8 0
15 -4 15 -9z m340 -21 c15 -36 26 -38 34 -6 3 13 13 26 21 30 12 4 15 -5 15
-49 0 -30 -4 -55 -10 -55 -5 0 -10 15 -10 33 l-1 32 -15 -35 -16 -35 -18 40
-19 40 0 -32 c-1 -54 -21 -37 -21 17 0 58 20 68 40 20z m190 -30 c0 -33 -4
-60 -10 -60 -6 0 -10 27 -10 60 0 33 4 60 10 60 6 0 10 -27 10 -60z m-1912 -5
c1 -25 -2 -45 -8 -45 -5 0 -10 15 -10 34 0 19 -3 42 -6 50 -4 11 -2 15 8 11
10 -4 15 -22 16 -50z m1952 45 c0 -5 7 -10 15 -10 8 0 15 -4 15 -10 0 -5 -7
-10 -15 -10 -9 0 -15 -9 -15 -25 0 -16 6 -25 15 -25 8 0 15 -5 15 -11 0 -6
-10 -9 -22 -7 -18 2 -24 12 -29 43 -4 22 -4 45 -2 52 6 15 23 17 23 3z m-1884
-35 c-4 -22 -3 -35 4 -35 5 0 10 -6 10 -14 0 -9 -7 -12 -21 -9 -16 4 -20 12
-18 37 2 17 0 37 -5 44 -5 8 0 12 15 12 19 0 21 -4 15 -35z m1504 13 c0 -12
-8 -16 -30 -16 -16 1 -30 6 -30 12 0 6 -4 5 -9 -2 -9 -15 -20 -15 -36 -2 -5 4
-18 6 -27 5 -17 -3 -24 6 -13 17 3 3 37 5 75 4 58 -1 70 -4 70 -18z m23 -6
c-5 -14 -3 -13 9 2 15 19 16 19 23 -3 4 -12 4 -25 1 -28 -3 -4 -6 -1 -6 6 0 8
-7 10 -20 6 -17 -5 -20 -2 -20 20 0 14 4 24 10 20 5 -3 6 -13 3 -23z m227 -1
c0 -29 21 -57 33 -44 4 3 7 22 7 40 0 20 4 32 10 28 6 -3 10 -26 10 -49 0 -40
-2 -43 -25 -43 -15 0 -32 9 -40 20 -17 24 -20 77 -5 77 6 0 10 -13 10 -29z
m1658 -7 c1 0 -11 -1 -27 -1 -22 0 -26 3 -17 13 8 9 15 9 26 1 8 -6 16 -12 18
-13z m-1436 -17 l15 -32 7 33 c7 29 26 46 26 22 0 -14 -33 -80 -40 -80 -4 0
-13 18 -20 40 -14 42 -33 45 -26 5 3 -14 0 -27 -5 -30 -5 -4 -9 11 -9 32 0 51
30 56 52 10z m112 11 c20 -27 12 -40 -21 -32 -19 5 -24 3 -21 -7 3 -8 15 -13
27 -12 22 3 29 -11 11 -22 -35 -21 -72 34 -50 74 14 27 35 27 54 -1z m204 9
c6 3 12 0 12 -6 0 -6 -5 -11 -12 -11 -9 0 -9 -3 0 -12 19 -19 14 -25 -18 -20
-24 3 -28 7 -20 17 8 9 8 15 0 20 -18 11 -11 26 8 17 9 -5 23 -7 30 -5z m-80
-6 c6 -1 12 -6 12 -12 0 -6 -9 -8 -20 -4 -11 3 -20 2 -20 -3 0 -5 9 -12 20
-15 22 -6 28 -43 8 -50 -22 -7 -48 4 -48 20 0 13 3 13 15 3 11 -9 19 -10 26
-3 7 7 2 12 -15 17 -14 3 -26 13 -26 22 0 31 -35 10 -38 -24 -2 -17 -7 -32
-11 -32 -4 0 -7 12 -5 28 1 15 2 34 3 43 1 16 12 17 99 10z m712 -21 c0 -6 -7
-13 -16 -17 -9 -3 -14 -13 -11 -24 3 -10 -4 -28 -14 -40 -22 -26 -22 -26 -7
-35 7 -4 8 -3 4 4 -4 7 -3 12 2 12 5 0 10 -32 10 -70 0 -41 -4 -68 -9 -64 -5
3 -7 10 -4 15 4 5 2 9 -2 9 -5 0 -8 -37 -6 -82 2 -46 0 -103 -6 -128 -7 -35
-9 -11 -9 110 0 105 4 157 12 163 8 5 8 9 -2 15 -15 10 -11 44 7 66 12 14 12
16 0 11 -11 -4 -15 3 -17 24 -2 21 3 31 15 34 32 8 53 7 53 -3z m-2181 -70
c24 0 34 -10 66 -61 l38 -61 30 56 c29 55 31 56 73 56 24 0 44 -2 44 -4 0 -2
-22 -43 -49 -92 -56 -99 -58 -82 19 -199 21 -33 39 -65 39 -71 1 -6 -14 -8
-40 -5 -36 5 -44 12 -74 60 l-33 54 -32 -56 c-27 -48 -36 -57 -60 -57 -61 0
-62 6 -9 97 27 46 49 87 49 90 0 4 -27 48 -60 99 -64 99 -69 110 -44 100 9 -3
28 -6 43 -6z m529 -42 c42 -13 88 -52 109 -92 22 -43 22 -142 0 -184 -30 -55
-69 -72 -169 -72 -104 0 -94 -20 -102 205 l-6 161 68 -4 c37 -2 82 -8 100 -14z
m2472 -4 c-1 -4 4 -10 10 -14 9 -5 8 -9 -2 -13 -10 -3 -14 4 -15 27 -1 17 1
25 3 19 3 -7 5 -15 4 -19z m-1595 -57 c33 -17 44 -40 45 -91 l0 -49 21 27 c27
34 91 37 126 4 21 -19 23 -30 23 -115 l0 -93 -47 0 c-27 0 -56 0 -67 0 -29 -1
-56 30 -56 65 0 45 32 75 80 75 43 0 43 0 34 24 -8 20 -53 21 -60 1 -7 -18
-54 -20 -54 -2 0 6 -9 1 -19 -12 -14 -18 -31 -25 -69 -29 l-51 -4 -3 -57 c-3
-55 -3 -56 -35 -59 l-33 -3 0 171 0 172 73 -7 c39 -4 81 -12 92 -18z m425 -38
c0 -25 -4 -29 -28 -29 -26 0 -28 3 -24 33 3 30 7 33 28 29 19 -3 24 -11 24
-33z m-980 -44 c23 -24 25 -32 25 -123 l0 -97 -25 2 c-35 4 -60 4 -98 2 -40
-3 -69 23 -78 68 -9 47 29 83 91 83 46 0 58 13 33 38 -18 18 -46 14 -60 -8
-17 -26 -68 -28 -68 -2 1 27 32 62 65 71 39 10 83 -3 115 -34z m106 -55 c15
-53 23 -69 27 -55 3 11 13 46 22 78 17 57 31 69 63 48 11 -7 5 -36 -31 -152
-25 -79 -48 -155 -52 -167 -6 -20 -11 -23 -33 -17 -15 4 -28 8 -29 9 -2 1 4
23 12 47 15 43 15 46 -25 164 -22 65 -40 121 -40 123 0 2 15 2 32 0 31 -3 33
-6 54 -78z m-1795 37 c-10 -9 -11 -8 -5 6 3 10 9 15 12 12 3 -3 0 -11 -7 -18z
m2999 19 c0 -3 -4 -8 -10 -11 -5 -3 -10 -1 -10 4 0 6 5 11 10 11 6 0 10 -2 10
-4z m-460 -27 c0 -8 4 -8 13 -1 6 6 36 10 66 11 l54 0 -7 -82 c-3 -45 -6 -97
-6 -114 0 -28 -3 -33 -25 -33 -25 0 -25 1 -25 89 l0 89 -26 -3 c-37 -4 -42
-12 -46 -92 -2 -40 -6 -74 -9 -77 -3 -3 -15 -3 -27 1 -21 5 -22 10 -22 114 l0
109 30 0 c17 0 30 -5 30 -11z m238 0 c20 -7 34 -21 41 -40 9 -26 8 -29 -11
-29 -12 0 -30 8 -40 17 -13 12 -22 13 -29 6 -14 -14 -3 -33 19 -33 10 0 28 -7
40 -16 27 -19 30 -78 5 -106 -34 -38 -123 -12 -123 38 0 28 34 34 44 8 3 -9
15 -14 28 -12 25 3 29 18 7 29 -8 4 -26 12 -41 19 -49 23 -46 99 5 120 12 5
22 9 23 9 1 1 15 -4 32 -10z m-2747 -32 c-10 -9 -11 -8 -5 6 3 10 9 15 12 12
3 -3 0 -11 -7 -18z m86 -64 c-2 -16 -4 -3 -4 27 0 30 2 43 4 28 2 -16 2 -40 0
-55z m3126 25 c-2 -5 3 -8 11 -8 18 0 7 -17 -49 -76 -16 -17 -31 -35 -32 -40
-23 -100 -25 -105 -39 -93 -8 6 -14 23 -14 37 l0 25 -27 -24 c-14 -13 -23 -18
-19 -11 4 6 2 12 -3 12 -6 0 -11 11 -11 25 0 19 -5 25 -22 25 -21 0 -21 1 6
29 16 16 25 34 21 40 -3 7 -3 10 2 9 4 -1 22 11 40 27 27 26 40 30 87 30 30 0
52 -3 49 -7z m-243 -28 c0 -11 -4 -20 -9 -20 -5 0 -7 9 -4 20 3 11 7 20 9 20
2 0 4 -9 4 -20z m784 5 c-7 -17 -20 -20 -28 -6 -4 5 0 12 6 14 23 9 28 7 22
-8z m-14 -25 c12 -8 11 -10 -7 -10 -13 0 -23 5 -23 10 0 13 11 13 30 0z
m-1794 -34 c8 -34 -2 -46 -37 -46 -27 0 -29 3 -29 35 0 32 2 35 30 35 23 0 31
-5 36 -24z m981 -58 c-3 -8 -6 -5 -6 6 -1 11 2 17 5 13 3 -3 4 -12 1 -19z m67
-43 c10 -8 24 -12 29 -8 6 4 8 0 4 -11 -4 -10 -7 -24 -7 -32 0 -8 -7 -14 -15
-14 -18 0 -20 20 -2 20 6 0 -4 14 -23 30 -35 30 -23 43 14 15z m111 -54 c3 -5
2 -12 -3 -15 -5 -3 -9 1 -9 9 0 17 3 19 12 6z m-1705 -33 c1 -21 2 -22 14 -5
16 21 26 22 26 1 0 -8 5 -12 10 -9 6 3 10 0 10 -9 0 -8 -6 -16 -12 -19 -10 -3
-10 -9 0 -26 16 -27 15 -31 -3 -31 -9 0 -18 12 -21 30 -4 17 -10 30 -15 30 -5
0 -9 -13 -9 -30 0 -18 -5 -30 -13 -30 -8 0 -13 20 -15 60 -3 49 0 60 12 60 10
0 16 -9 16 -22z m100 3 c0 -19 -17 -38 -25 -29 -7 7 7 48 16 48 5 0 9 -9 9
-19z m173 -21 c21 0 26 -19 13 -52 -7 -19 -18 -28 -32 -28 -27 0 -49 62 -32
93 10 19 12 19 23 4 7 -9 19 -17 28 -17z m17 20 c0 -5 -4 -10 -10 -10 -5 0
-10 5 -10 10 0 6 5 10 10 10 6 0 10 -4 10 -10z m397 -9 c-3 -14 0 -17 14 -14
13 4 22 -2 28 -18 l10 -24 0 23 c1 34 21 26 21 -8 0 -16 5 -30 10 -30 6 0 10
14 10 30 0 17 5 30 10 30 6 0 10 -18 10 -40 0 -36 -3 -40 -25 -40 -13 0 -28 7
-33 16 -8 15 -10 15 -15 0 -4 -10 -18 -16 -37 -16 -30 0 -30 0 -30 55 0 44 3
55 16 55 11 0 15 -6 11 -19z m142 -36 c0 -31 -3 -55 -9 -55 -6 0 -10 25 -10
55 0 30 4 55 9 55 4 0 9 -25 10 -55z m31 29 c0 -22 2 -24 15 -14 8 6 19 9 25
5 6 -3 10 3 10 14 0 12 5 21 10 21 6 0 10 -25 10 -55 l0 -55 -45 2 -45 1 0 54
c0 29 5 53 10 53 6 0 10 -12 10 -26z m100 -14 c0 -22 -4 -40 -10 -40 -11 0
-14 63 -3 73 11 12 13 8 13 -33z m-406 18 c10 -10 11 -17 2 -30 -8 -13 -8 -23
2 -38 11 -18 10 -20 -8 -20 -11 0 -21 7 -21 15 -1 8 -2 21 -3 28 -1 6 -5 16
-11 20 -6 6 -6 10 3 14 6 2 10 9 6 14 -8 13 15 11 30 -3z m976 8 c0 -3 -4 -8
-10 -11 -5 -3 -10 -1 -10 4 0 6 5 11 10 11 6 0 10 -2 10 -4z m-1375 -56 c0
-31 -3 -35 -25 -35 -21 0 -25 5 -28 38 -2 36 -1 38 25 35 24 -3 27 -7 28 -38z
m251 28 c7 -5 23 -4 38 2 15 5 25 6 22 1 -3 -5 2 -15 11 -22 30 -25 44 -75 34
-119 -5 -22 -6 -40 -2 -40 4 0 5 -18 3 -40 -3 -28 -11 -44 -26 -52 -11 -7 -23
-12 -26 -11 -9 2 -5 -65 4 -74 5 -4 7 -1 3 8 -3 9 5 29 17 44 l23 29 47 -45
c36 -34 52 -59 70 -114 30 -88 58 -249 53 -295 -4 -37 -69 -134 -81 -122 -4 3
-4 -1 -1 -11 5 -12 -2 -22 -23 -34 -36 -21 -48 -55 -31 -94 12 -29 5 -79 -10
-79 -5 0 -14 19 -20 43 -16 64 -25 73 -43 45 -51 -78 -72 -147 -45 -149 10 0
10 -2 0 -6 -7 -2 -13 -21 -13 -41 0 -20 -6 -65 -13 -99 -8 -34 -12 -69 -11
-77 1 -9 -2 -14 -7 -10 -5 3 -9 -1 -9 -9 0 -7 -9 -31 -19 -53 -13 -26 -16 -44
-10 -56 14 -27 11 -37 -16 -44 -14 -3 -25 -13 -25 -21 0 -13 -9 -15 -52 -10
-31 4 -47 3 -39 -2 11 -7 10 -10 -4 -18 -17 -10 -40 -97 -30 -120 6 -17 -55
-17 -123 -2 -41 10 -51 17 -60 43 -10 25 -9 37 7 68 18 38 16 49 -7 26 -9 -9
-12 -8 -12 4 0 9 -4 19 -8 22 -4 2 -6 -11 -4 -30 3 -22 0 -34 -8 -34 -21 0 -6
81 28 148 17 33 28 63 25 66 -4 3 3 6 15 6 11 0 24 5 27 10 3 6 27 10 53 9 40
-1 43 -2 22 -10 -20 -7 -18 -8 14 -4 21 2 39 5 41 7 1 2 20 48 42 104 38 94
39 103 26 129 -8 15 -13 43 -11 61 3 27 0 34 -13 34 -10 0 -31 16 -47 36 -16
19 -36 36 -43 37 -38 6 -110 51 -115 71 -3 13 -23 37 -45 55 -25 21 -50 57
-70 99 -35 75 -35 123 -3 197 10 22 18 42 19 45 0 3 11 42 25 88 15 51 27 77
32 70 5 -9 8 -6 8 9 0 16 4 21 15 17 8 -4 17 1 21 10 3 9 10 13 15 10 5 -3 9
1 9 8 0 9 3 9 10 -2 8 -12 10 -12 10 -1 0 8 -7 19 -17 26 -14 10 -10 14 32 29
54 18 78 21 55 6 -11 -7 -7 -10 17 -10 17 0 34 4 37 9 4 5 -3 7 -14 4 -11 -3
-20 -1 -20 5 0 5 10 12 23 16 40 11 49 7 42 -16 -5 -20 -4 -21 5 -5 16 24 30
21 30 -7 0 -14 5 -28 10 -31 6 -4 8 -10 5 -14 -2 -5 2 -17 10 -27 24 -31 18
-51 -7 -24 -20 22 -22 22 -28 5 -4 -10 -3 -40 2 -65 5 -27 4 -66 -2 -95 -6
-28 -13 -66 -16 -85 -2 -19 -17 -78 -31 -130 -34 -124 -39 -155 -24 -146 6 4
16 -3 22 -17 6 -14 22 -30 35 -37 13 -7 22 -16 20 -19 -8 -13 78 -10 105 4 16
9 29 13 29 11 0 -3 11 5 23 17 13 12 24 24 23 27 0 3 18 25 41 49 39 42 40 44
26 72 -12 24 -12 33 -3 44 10 12 10 18 0 30 -7 9 -10 18 -7 22 4 3 3 11 -1 17
-10 12 -38 105 -47 151 -10 52 -11 54 -17 60 -3 3 -15 -20 -26 -52 -16 -43
-18 -59 -9 -65 9 -6 8 -8 -3 -8 -13 0 -13 -1 0 -10 13 -9 13 -10 0 -10 -13 0
-13 -1 0 -10 12 -8 11 -10 -8 -10 -20 0 -21 -3 -12 -20 8 -16 8 -22 -4 -26
-17 -7 -56 12 -56 27 0 6 4 8 9 4 6 -3 15 5 22 17 11 20 10 21 -3 11 -28 -23
-28 0 0 23 21 19 23 24 10 24 -22 0 -88 127 -88 167 1 26 2 27 14 10 8 -10 24
-52 37 -94 19 -62 25 -72 30 -52 7 24 7 24 8 2 2 -41 18 -24 30 34 8 33 23 66
37 80 26 25 33 43 11 24 -18 -14 -30 -2 -16 15 6 7 17 10 25 7 8 -3 14 0 14 6
0 10 -24 16 -33 9 -2 -2 -11 3 -21 11 -15 12 -16 12 -10 -5 4 -10 4 -16 0 -12
-7 5 -13 26 -15 51 -1 4 -15 16 -32 26 -17 10 -30 20 -30 22 2 19 -14 47 -24
43 -7 -3 -16 -1 -19 5 -9 14 4 81 15 81 5 0 8 -3 8 -7 -5 -33 3 -48 27 -50 19
-1 23 2 15 10 -18 18 -13 31 7 16 9 -7 7 -2 -5 12 l-23 25 25 36 c14 21 25 41
25 46 0 11 32 12 46 0z m224 -8 c16 -30 3 -60 -24 -60 -35 0 -52 25 -38 55 14
30 47 33 62 5z m983 -42 c-8 -72 -13 -73 -13 -5 0 32 4 57 10 57 5 0 7 -22 3
-52z m-86 27 c0 -8 -4 -15 -9 -15 -4 0 -8 7 -8 15 0 8 4 15 8 15 5 0 9 -7 9
-15z m-567 -35 c0 -5 -4 -10 -10 -10 -5 0 -10 5 -10 10 0 6 5 10 10 10 6 0 10
-4 10 -10z m567 -67 c-11 -10 -26 8 -20 23 5 15 7 14 15 -1 6 -9 7 -19 5 -22z
m53 13 c0 -2 -7 -7 -16 -10 -8 -3 -12 -2 -9 4 6 10 25 14 25 6z m119 -48 c-2
-22 12 -60 41 -114 44 -85 46 -120 5 -103 -19 7 -19 8 2 8 21 1 20 2 -9 56
-32 60 -43 69 -36 30 5 -24 3 -27 -24 -29 -26 -2 -35 -21 -30 -66 2 -25 -1
-70 -8 -100 -6 -30 -11 -63 -11 -72 0 -10 -4 -18 -8 -18 -5 0 -18 -23 -29 -50
l-21 -51 22 -10 c20 -9 20 -9 -4 -4 -21 4 -28 -1 -38 -21 -10 -22 -8 -32 11
-65 12 -21 25 -39 28 -39 4 0 12 -11 18 -24 9 -20 17 -24 38 -20 39 7 59 -2
45 -20 -9 -11 -9 -15 1 -19 8 -4 7 -6 -4 -6 -10 -1 -21 0 -24 2 -4 1 -10 -8
-15 -19 -13 -37 -109 -43 -109 -8 0 10 -10 14 -29 12 -16 -1 -36 4 -45 11 -17
15 -22 61 -6 61 5 0 7 6 4 13 -6 17 25 19 45 3 8 -6 12 -6 9 -1 -3 6 -2 19 3
30 6 17 8 17 8 3 1 -10 6 -18 12 -18 6 0 9 12 7 28 -2 15 -8 26 -14 25 -13 -2
-44 161 -44 231 l0 48 33 -4 c30 -3 34 1 29 31 -1 5 -11 11 -22 14 -20 5 -29
27 -11 27 9 0 5 106 -5 122 -3 5 -13 6 -23 3 -13 -4 -17 1 -18 22 0 16 -4 42
-8 60 -7 30 -5 33 29 50 32 15 45 16 104 5 57 -10 68 -9 77 3 16 24 26 17 24
-17z m-625 -74 c9 -3 13 -10 10 -15 -3 -5 -1 -9 5 -9 7 0 7 -8 1 -26 -7 -16
-7 -23 0 -19 6 3 10 1 10 -4 0 -6 -8 -11 -17 -12 -15 0 -15 -2 -3 -7 26 -12
12 -69 -15 -58 -7 2 -18 -1 -24 -7 -8 -8 -11 -8 -11 0 0 6 -13 16 -30 22 -28
9 -44 -2 -17 -12 8 -4 7 -6 -4 -6 -20 -1 -63 44 -55 58 4 5 13 8 20 5 8 -3 17
0 22 7 4 7 3 10 -3 6 -5 -3 -10 0 -10 8 0 22 18 18 24 -5 6 -23 23 -27 23 -5
0 9 -11 20 -25 27 -27 12 -25 29 4 23 14 -3 18 1 14 16 -5 16 0 19 30 19 19 0
42 -3 51 -6z m-2354 -69 c45 -23 40 -46 -8 -39 -38 5 -39 5 -34 -25 4 -30 3
-31 -33 -31 -30 0 -36 3 -31 16 5 12 2 15 -10 10 -14 -6 -15 -4 -4 9 12 14 10
15 -13 10 -15 -4 -27 -3 -27 2 0 15 84 64 103 59 14 -3 17 0 12 17 -5 19 -5
20 5 4 6 -9 24 -24 40 -32z m2782 -30 c-6 -14 -16 -25 -21 -25 -15 0 -22 33
-9 42 7 4 9 8 3 8 -5 0 -3 5 5 10 23 14 35 -5 22 -35z m-487 -65 c-3 -5 1 -10
9 -10 19 0 21 -31 4 -48 -15 -15 -64 -16 -73 -1 -11 17 3 23 20 9 21 -17 19
-1 -2 23 -17 19 -17 20 5 8 12 -7 22 -8 21 -4 -3 19 2 33 12 33 5 0 7 -4 4
-10z m120 -32 c-11 -13 -13 -17 -5 -10 24 20 30 14 30 -32 0 -39 -2 -44 -19
-39 -11 3 -28 15 -38 26 -12 15 -13 18 -2 9 13 -9 16 -9 16 3 0 8 -6 15 -14
15 -7 0 -13 10 -12 23 0 21 1 21 9 2 5 -11 9 -14 11 -7 3 24 4 27 13 40 6 10
11 11 19 3 7 -7 5 -17 -8 -33z m-280 2 c-3 -4 2 -10 10 -14 9 -3 15 -18 15
-38 0 -44 -13 -63 -36 -53 -11 5 -23 7 -27 6 -12 -2 -5 113 7 121 12 8 38 -11
31 -22z m411 -8 c-9 -8 -26 10 -26 26 1 15 2 15 15 -2 8 -11 13 -21 11 -24z
m456 16 c-3 -14 -2 -19 6 -14 9 5 9 1 3 -17 -6 -14 -8 -27 -6 -29 3 -2 7 -22
10 -44 l5 -39 -14 35 -14 35 -10 -25 c-7 -16 -11 -19 -11 -9 -1 9 5 22 13 28
8 7 12 24 10 44 -4 31 1 57 10 57 2 0 2 -10 -2 -22z m102 -9 c-3 -5 -14 -5
-25 1 -26 14 -24 18 6 12 14 -2 22 -8 19 -13z m-3067 -36 c-3 -10 -5 -2 -5 17
0 19 2 27 5 18 2 -10 2 -26 0 -35z m3109 10 c-7 -7 -26 7 -26 19 0 6 6 6 15
-2 9 -7 13 -15 11 -17z m520 -2 c-4 -6 -13 -11 -19 -11 -8 0 -7 3 2 9 8 5 10
14 6 22 -6 11 -5 11 5 2 7 -6 9 -16 6 -22z m-627 -8 c0 -25 -1 -25 -8 -8 -5
11 -7 23 -4 28 8 14 13 7 12 -20z m140 -37 c7 -16 22 -67 33 -115 23 -97 31
-111 58 -104 15 4 18 1 13 -19 -11 -50 -13 -52 -29 -32 -13 18 -14 16 -13 -26
1 -67 0 -80 -10 -80 -4 0 -6 10 -4 23 3 14 -2 29 -11 36 -11 9 -13 17 -7 25
11 13 -7 78 -27 98 -6 6 -8 24 -5 39 3 16 1 35 -4 41 -6 7 -9 23 -7 36 2 13 0
21 -4 18 -4 -2 -9 4 -9 15 -2 17 1 18 13 8 13 -11 14 -9 3 17 -7 16 -18 35
-23 43 -9 11 -7 13 4 9 8 -2 21 -17 29 -32z m-2229 -6 c0 7 3 11 6 7 4 -3 4
-14 0 -23 -6 -15 -8 -15 -26 1 -11 10 -20 23 -20 28 0 6 9 2 20 -8 14 -13 20
-14 20 -5z m1333 5 c-3 -9 -8 -14 -10 -11 -3 3 -2 9 2 15 9 16 15 13 8 -4z
m667 -25 c0 -13 -1 -13 -10 0 -5 8 -10 22 -10 30 0 13 1 13 10 0 5 -8 10 -22
10 -30z m-2115 20 c4 -6 -9 -10 -32 -9 -38 1 -38 1 -8 9 17 4 31 8 32 9 1 0 5
-3 8 -9z m189 -2 c-3 -5 -9 -6 -14 -3 -4 3 -11 -1 -13 -7 -4 -8 -6 -7 -6 4 -1
11 6 16 18 15 11 0 17 -5 15 -9z m71 2 c-7 -12 -55 -14 -55 -2 0 4 14 9 31 10
19 2 28 -2 24 -8z m1645 2 c0 -5 -11 -19 -25 -32 -28 -26 -34 -10 -7 19 18 21
32 26 32 13z m-2117 -17 c-2 -5 -19 -21 -36 -34 l-32 -25 24 26 c12 15 21 30
18 35 -3 5 3 9 13 9 10 0 16 -5 13 -11z m124 8 c-9 -2 -15 -9 -12 -14 4 -5 -3
-6 -17 -1 -13 5 -33 7 -45 6 -13 0 -23 3 -23 7 0 5 26 8 58 8 31 -1 49 -3 39
-6z m843 -19 c0 -3 -7 -12 -15 -20 -12 -13 -15 -13 -15 -1 0 7 3 17 7 20 8 8
23 9 23 1z m677 -36 c-3 -8 -6 -5 -6 6 -1 11 2 17 5 13 3 -3 4 -12 1 -19z
m717 0 c-3 -4 -9 -8 -15 -8 -5 0 -9 4 -9 8 0 5 7 9 15 9 8 0 12 -4 9 -9z
m-3005 -74 c2 -40 0 -45 -12 -32 -17 16 -47 73 -47 87 0 15 34 19 46 5 5 -7
11 -34 13 -60z m3318 46 c2 -12 -3 -20 -12 -20 -15 0 -21 31 -8 43 9 9 16 1
20 -23z m-910 14 c-3 -3 -12 -4 -19 -1 -8 3 -5 6 6 6 11 1 17 -2 13 -5z m373
-35 c0 -9 -27 -6 -36 4 -4 4 -2 7 4 7 6 0 9 8 6 18 -5 14 -3 14 10 -2 9 -11
16 -23 16 -27z m293 26 c-3 -9 -8 -14 -10 -11 -3 3 -2 9 2 15 9 16 15 13 8 -4z
m-658 -31 c17 -26 17 -27 -4 -21 -11 3 -21 1 -21 -5 0 -5 -5 -6 -12 -2 -8 5
-7 10 4 18 8 6 13 17 11 24 -8 20 4 13 22 -14z m1245 -4 c0 -11 -7 -20 -15
-20 -15 0 -21 21 -8 33 12 13 23 7 23 -13z m50 -6 c0 -8 -9 -14 -20 -14 -18 0
-19 3 -10 20 12 22 30 18 30 -6z m-724 -21 c-3 -4 -6 -1 -6 6 0 7 -4 9 -10 6
-6 -4 -7 1 -3 11 6 15 7 15 15 -1 6 -9 7 -19 4 -22z m-1337 8 c3 -1 -4 -8 -15
-17 -10 -8 -13 -12 -6 -9 8 4 30 8 49 10 29 2 36 -2 44 -22 19 -50 12 -63 -31
-63 -33 0 -40 3 -40 19 0 11 -4 22 -9 25 -5 4 -7 -3 -4 -14 4 -15 2 -19 -10
-14 -22 8 -20 93 3 89 8 -2 17 -4 19 -4z m26 -1 c3 -5 1 -10 -4 -10 -6 0 -11
5 -11 10 0 6 2 10 4 10 3 0 8 -4 11 -10z m35 6 c0 -3 -4 -8 -10 -11 -5 -3 -10
-1 -10 4 0 6 5 11 10 11 6 0 10 -2 10 -4z m1890 0 c0 -2 -8 -10 -17 -17 -16
-13 -17 -12 -4 4 13 16 21 21 21 13z m-827 -23 c-7 -2 -19 -2 -25 0 -7 3 -2 5
12 5 14 0 19 -2 13 -5z m530 -10 c-7 -2 -21 -2 -30 0 -10 3 -4 5 12 5 17 0 24
-2 18 -5z m-2295 -48 c-3 -3 -9 2 -12 12 -6 14 -5 15 5 6 7 -7 10 -15 7 -18z
m-113 -6 c-8 -12 -55 -12 -55 1 0 5 6 7 14 4 8 -3 17 0 21 5 3 6 11 9 16 5 5
-3 7 -10 4 -15z m-128 -4 c0 -8 -4 -15 -9 -15 -10 0 -11 14 -1 23 9 10 10 9
10 -8z m1508 -5 c22 0 37 -39 30 -76 -6 -33 -7 -34 -56 -34 l-50 0 3 53 c3 45
6 52 26 55 12 2 22 9 23 15 0 9 2 8 6 0 2 -7 11 -13 18 -13z m-472 -33 c-7
-11 -23 2 -23 19 0 12 2 12 14 2 8 -7 12 -16 9 -21z m1124 1 c-3 -7 -5 -2 -5
12 0 14 2 19 5 13 2 -7 2 -19 0 -25z m753 22 c0 -5 -2 -10 -4 -10 -3 0 -8 5
-11 10 -3 6 -1 10 4 10 6 0 11 -4 11 -10z m-983 -32 c-3 -8 -6 -5 -6 6 -1 11
2 17 5 13 3 -3 4 -12 1 -19z m-105 -22 c4 -6 6 -18 4 -26 -16 -71 -21 -82 -40
-90 -24 -9 -31 -1 -50 65 -14 46 -11 55 24 68 19 7 53 -2 62 -17z m-2522 -45
c0 -29 -10 -35 -70 -48 -33 -7 -84 -12 -67 -7 18 6 18 6 0 20 -10 7 -13 14 -6
14 7 0 10 7 7 15 -4 8 -2 16 2 16 51 7 64 6 64 -2 0 -6 7 -3 16 5 8 9 24 16
35 16 14 0 19 -7 19 -29z m3052 -13 c10 -10 15 -18 12 -18 -4 0 -1 -8 6 -17 7
-10 0 -4 -17 14 -28 30 -31 31 -49 15 -18 -16 -18 -16 -1 4 13 16 14 23 4 34
-16 18 19 -7 45 -32z m-1011 22 c10 -6 19 -15 19 -21 0 -13 29 -78 43 -96 13
-18 47 6 47 35 0 13 4 20 10 17 6 -4 8 -11 5 -16 -4 -5 0 -9 8 -9 8 0 18 -7
21 -16 4 -11 13 -14 31 -10 38 10 30 -6 -23 -41 l-48 -33 -44 22 c-50 24 -64
39 -48 49 6 4 7 12 3 18 -5 9 -10 9 -21 0 -17 -14 -43 6 -76 59 -17 28 -19 36
-7 43 19 12 56 11 80 -1z m1023 -6 c3 -8 2 -12 -4 -9 -6 3 -10 10 -10 16 0 14
7 11 14 -7z m37 -7 c-10 -9 -11 -8 -5 6 3 10 9 15 12 12 3 -3 0 -11 -7 -18z
m-3271 3 c0 -6 -9 -10 -20 -10 -11 0 -20 -4 -20 -10 0 -5 -7 -7 -15 -4 -11 4
-12 10 -6 18 12 14 61 19 61 6z m3135 0 c-3 -5 -12 -10 -18 -10 -7 0 -6 4 3
10 19 12 23 12 15 0z m170 -48 c-5 -14 -4 -15 6 -4 19 18 39 15 39 -5 0 -10
11 -38 25 -62 26 -45 32 -71 15 -71 -5 0 -10 -12 -10 -27 0 -35 -41 -123 -66
-143 -18 -14 -18 -14 -3 5 9 11 20 27 24 35 8 13 6 13 -7 2 -10 -8 -19 -9 -22
-3 -4 5 3 16 14 24 11 7 17 17 13 20 -3 4 -1 7 6 7 8 0 7 5 -4 16 -13 13 -13
19 -3 32 10 12 10 14 1 8 -7 -4 -13 -3 -13 3 0 6 -11 13 -25 17 -14 3 -25 12
-25 19 0 7 -7 18 -15 25 -21 18 -19 35 10 66 29 31 34 53 8 33 -16 -13 -17
-12 -4 3 7 10 18 15 23 12 6 -4 8 3 4 17 -6 21 -5 22 4 6 7 -10 9 -26 5 -35z
m-168 -6 c0 -7 -6 -13 -13 -13 -7 0 -12 8 -11 18 1 19 24 15 24 -5z m-3137 -5
c3 -1 -2 -5 -10 -11 -9 -6 -17 -5 -22 3 -5 8 -12 6 -22 -8 -16 -21 -20 -17
-10 9 6 15 17 16 64 7z m3218 -18 c-6 -7 -16 -13 -22 -12 -6 0 -5 3 3 6 11 5
11 7 0 14 -10 6 -7 8 8 6 17 -1 19 -4 11 -14z m-500 -5 c-6 -18 -28 -21 -28
-4 0 9 7 16 16 16 9 0 14 -5 12 -12z m-136 -25 c7 -16 13 -30 15 -32 1 -2 18
6 37 17 22 13 38 17 42 11 3 -6 12 -8 18 -6 19 7 40 -9 31 -23 -6 -9 -9 -9
-15 0 -5 8 -17 1 -39 -22 -17 -18 -31 -28 -31 -22 0 7 7 14 15 18 8 3 15 10
15 16 0 16 -27 12 -34 -6 -4 -10 -15 -14 -33 -12 -22 2 -29 10 -34 33 l-7 30
-1 -28 c-1 -18 -5 -26 -12 -21 -6 3 -9 15 -6 25 3 11 1 16 -5 13 -5 -3 -4 3 4
15 17 28 26 26 40 -6z m-1180 -25 c11 -13 16 -28 12 -37 -18 -44 -34 -107 -29
-119 3 -8 -4 -6 -19 5 -23 17 -42 73 -25 73 5 0 5 7 2 17 -4 11 -3 14 5 9 8
-5 12 0 12 13 0 11 4 22 10 26 5 3 7 12 3 20 -8 22 7 18 29 -7z m88 -43 c0 -9
-10 -15 -27 -16 l-28 -1 25 -8 c21 -7 22 -8 5 -10 -11 -1 -14 -4 -8 -7 10 -3
9 -8 -2 -20 -8 -8 -15 -23 -15 -34 0 -13 -4 -18 -12 -13 -7 4 -8 3 -4 -5 4 -6
0 -14 -8 -17 -9 -3 -13 -10 -10 -15 3 -5 -2 -6 -10 -3 -9 3 -13 11 -9 17 4 7
8 18 8 27 2 25 27 93 43 117 11 18 18 21 33 12 10 -5 19 -16 19 -24z m1020 25
c0 -5 -10 -10 -22 -9 -22 0 -22 1 -3 9 11 5 21 9 23 9 1 1 2 -3 2 -9z m-2395
-10 c4 -6 -6 -10 -22 -9 -25 0 -26 1 -8 9 11 5 21 9 22 9 1 1 5 -3 8 -9z m65
6 c0 -2 -11 -6 -25 -8 -14 -3 -25 -1 -25 3 0 5 11 9 25 9 14 0 25 -2 25 -4z
m2855 -26 c-2 -8 -4 -18 -4 -22 -1 -5 -6 -8 -12 -8 -8 0 -8 4 0 14 9 11 9 16
-1 22 -7 4 -10 4 -6 -1 4 -4 3 -14 -3 -21 -6 -8 -6 -14 0 -18 6 -4 4 -20 -4
-44 -8 -20 -26 -76 -40 -124 -15 -49 -31 -88 -37 -88 -6 0 -6 -6 1 -14 10 -12
3 -20 -41 -45 -29 -17 -57 -30 -63 -30 -5 0 -4 3 2 6 15 5 6 17 -37 46 -14 10
-25 27 -25 40 0 12 -5 21 -12 20 -17 -4 -16 1 7 39 11 18 20 40 20 48 -1 8 -8
3 -16 -12 -8 -16 -17 -28 -20 -28 -2 0 0 9 6 20 6 11 8 24 5 29 -3 5 1 11 7
14 9 3 7 9 -6 19 -18 14 -18 15 9 22 21 5 25 10 16 16 -9 5 -12 18 -7 41 10
53 21 64 47 52 17 -7 36 -6 68 4 25 7 51 11 58 9 7 -3 15 -1 18 4 3 5 21 8 39
7 24 -1 33 -6 31 -17z m-2860 -10 c3 -6 -4 -10 -17 -10 -18 0 -20 2 -8 10 19
12 18 12 25 0z m-72 -7 c-7 -2 -19 -2 -25 0 -7 3 -2 5 12 5 14 0 19 -2 13 -5z
m2067 -13 c0 -5 -6 -12 -12 -16 -7 -4 -10 -4 -6 1 4 4 3 14 -4 22 -8 11 -7 12
6 7 9 -3 16 -10 16 -14z m-244 -40 c0 -11 -4 -20 -8 -20 -4 0 -8 9 -8 20 0 11
4 20 8 20 4 0 8 -9 8 -20z m1185 -10 c-1 -8 -4 -25 -5 -37 0 -13 -4 -23 -8
-23 -5 0 -8 -4 -8 -10 0 -5 5 -10 11 -10 26 0 39 -38 29 -85 -1 -5 -2 -14 -1
-19 1 -5 -5 -6 -14 -2 -9 3 -14 2 -10 -3 3 -5 2 -11 -2 -14 -5 -2 -2 -2 6 0 9
2 11 -2 7 -13 -3 -8 -6 -19 -6 -24 0 -15 -45 -16 -56 -1 -9 11 -12 12 -19 1
-5 -9 -4 -11 3 -6 7 4 12 1 12 -8 0 -26 -20 -18 -31 12 -22 55 -21 162 1 162
5 0 7 -8 4 -17 -5 -15 -4 -16 5 -3 13 19 14 53 1 45 -16 -10 1 28 24 53 22 25
63 26 57 2z m-1235 -15 c-3 -8 -1 -15 5 -15 6 0 7 -4 4 -10 -3 -5 1 -10 9 -10
9 0 16 7 16 15 0 8 5 15 11 15 6 0 8 -8 5 -17 -5 -16 -5 -16 6 -2 11 13 13 4
13 -55 0 -39 4 -77 9 -84 13 -18 -1 -115 -19 -128 -8 -6 -12 -13 -10 -16 3 -3
-3 -5 -13 -4 -31 2 -55 33 -48 62 4 15 3 23 -2 20 -6 -3 -7 14 -4 41 4 35 2
44 -7 38 -9 -5 -11 5 -8 41 2 26 9 50 16 52 9 3 9 7 0 18 -9 11 -9 14 0 14 7
0 9 5 6 10 -3 6 -3 15 0 20 10 15 18 12 11 -5z m-429 -51 c-9 -9 -28 6 -21 18
4 6 10 6 17 -1 6 -6 8 -13 4 -17z m844 -31 c13 -16 12 -17 -3 -4 -10 7 -18 15
-18 17 0 8 8 3 21 -13z m-91 -22 c0 -5 8 -12 18 -15 14 -4 14 -5 -3 -4 -34 1
-41 -2 -26 -11 9 -6 10 -11 2 -15 -6 -4 -14 1 -18 10 -4 10 -2 19 5 22 7 2 10
8 6 13 -3 5 0 9 5 9 6 0 11 -4 11 -9z m1077 -43 c-8 -19 -22 -41 -31 -50 -15
-15 -15 -21 -3 -50 8 -18 29 -50 46 -72 34 -42 40 -80 15 -90 -22 -8 -85 4
-79 15 3 4 -8 23 -25 40 -16 18 -30 43 -30 55 0 16 -6 24 -17 24 -9 0 -13 3
-10 7 4 3 1 14 -7 22 -17 18 -11 30 20 47 13 8 26 9 37 2 11 -6 17 -5 18 2 1
5 2 16 3 23 0 6 9 12 18 12 10 0 17 3 15 7 -3 8 35 50 40 44 2 -2 -2 -19 -10
-38z m-2482 -8 c-3 -5 -10 -10 -16 -10 -5 0 -9 5 -9 10 0 6 7 10 16 10 8 0 12
-4 9 -10z m-62 -7 c-7 -2 -19 -2 -25 0 -7 3 -2 5 12 5 14 0 19 -2 13 -5z
m2452 -3 c-3 -5 -12 -10 -18 -10 -7 0 -6 4 3 10 19 12 23 12 15 0z m-2529 -7
c-4 -5 -10 -7 -12 -5 -2 1 -18 -5 -34 -13 -16 -8 -32 -16 -35 -16 -2 0 -21 -7
-41 -15 -20 -8 -39 -13 -42 -10 -3 3 -10 -1 -17 -10 -10 -14 -12 -14 -24 0
-11 13 -8 16 21 24 l33 9 -25 12 c-22 9 -20 10 17 7 24 -3 46 0 49 6 4 5 19 7
35 4 16 -3 29 -1 29 4 0 6 12 10 27 10 14 0 23 -3 19 -7z m1638 -9 c5 -13 3
-14 -6 -7 -7 6 -20 13 -28 16 -10 4 -8 6 6 6 12 1 25 -6 28 -15z m-94 -25 c0
-22 -5 -32 -20 -36 -11 -3 -20 -12 -20 -20 0 -10 -7 -14 -20 -10 -10 3 -24 -1
-31 -9 -9 -11 -8 -14 1 -14 8 0 10 -3 7 -6 -4 -4 -13 -2 -20 4 -8 7 -16 10
-19 7 -2 -3 -5 2 -5 10 0 11 4 12 14 4 13 -11 15 -9 29 39 2 6 -3 12 -10 12
-8 0 -16 8 -18 18 -4 15 1 18 38 17 24 -1 49 2 56 7 18 11 18 11 18 -23z
m-770 11 c0 -5 -2 -10 -4 -10 -3 0 -8 5 -11 10 -3 6 -1 10 4 10 6 0 11 -4 11
-10z m-1007 -7 c-7 -2 -19 -2 -25 0 -7 3 -2 5 12 5 14 0 19 -2 13 -5z m417 1
c0 -8 -19 -13 -24 -6 -3 5 1 9 9 9 8 0 15 -2 15 -3z m1753 -8 c33 5 37 3 37
-15 0 -17 -7 -21 -32 -23 l-33 -1 33 -4 c17 -2 32 -9 32 -14 0 -17 -30 -22
-63 -9 -37 15 -63 34 -32 25 12 -4 10 0 -6 9 -15 8 -29 22 -32 30 -5 12 0 13
26 5 18 -5 49 -7 70 -3z m-2230 -3 c-7 -2 -21 -2 -30 0 -10 3 -4 5 12 5 17 0
24 -2 18 -5z m537 -12 c0 -5 -18 -13 -40 -19 -35 -9 -39 -8 -29 4 6 8 14 12
18 10 4 -3 13 -1 21 5 19 11 30 11 30 0z m27 -6 c0 -8 -4 -12 -9 -9 -5 3 -6
10 -3 15 9 13 12 11 12 -6z m-486 -22 c8 -10 9 -14 2 -10 -7 4 -16 0 -22 -10
-5 -10 -12 -15 -16 -12 -3 4 1 13 9 22 8 8 12 17 9 21 -4 3 -4 6 -1 6 3 0 12
-8 19 -17z m559 1 c0 -2 -7 -4 -15 -4 -8 0 -15 4 -15 10 0 5 7 7 15 4 8 -4 15
-8 15 -10z m1085 6 c3 -5 -1 -10 -10 -10 -9 0 -13 5 -10 10 3 6 8 10 10 10 2
0 7 -4 10 -10z m-35 -14 c0 -2 -8 -10 -17 -17 -16 -13 -17 -12 -4 4 13 16 21
21 21 13z m-1670 -16 c-12 -8 -12 -10 -1 -10 8 0 12 -3 8 -6 -9 -9 -28 6 -22
17 4 5 12 9 18 9 7 0 6 -4 -3 -10z m420 0 c8 -5 11 -10 5 -10 -5 0 -17 5 -25
10 -8 5 -10 10 -5 10 6 0 17 -5 25 -10z m201 -17 c13 -16 12 -17 -3 -4 -10 7
-18 15 -18 17 0 8 8 3 21 -13z m2054 -4 c11 -17 -1 -21 -15 -4 -8 9 -8 15 -2
15 6 0 14 -5 17 -11z m-1785 -15 c0 -2 -7 -4 -15 -4 -8 0 -15 4 -15 10 0 5 7
7 15 4 8 -4 15 -8 15 -10z m-473 -10 c-3 -3 -12 -4 -19 -1 -8 3 -5 6 6 6 11 1
17 -2 13 -5z m221 -31 c2 -10 3 -26 3 -35 0 -24 17 -32 34 -18 11 9 15 9 15 1
0 -6 -4 -11 -10 -11 -5 0 -8 -16 -6 -35 2 -31 -2 -36 -32 -51 -18 -8 -31 -18
-28 -21 3 -3 17 2 30 11 31 20 36 20 36 0 0 -11 6 -14 23 -9 12 3 18 3 12 -2
-5 -4 -12 -17 -13 -28 -4 -17 -1 -17 17 5 11 14 20 21 21 16 0 -5 8 -2 18 5 9
7 14 9 10 5 -4 -5 -2 -14 5 -20 7 -6 10 -10 8 -9 -2 2 -10 -2 -18 -9 -10 -8
-12 -8 -8 4 4 9 0 15 -9 15 -8 0 -12 -6 -9 -14 3 -8 -2 -22 -11 -32 -13 -14
-14 -20 -5 -23 9 -3 8 -6 -3 -10 -16 -7 -19 7 -5 28 4 7 -3 14 -18 16 -14 3
-25 1 -25 -4 0 -5 -5 -6 -12 -2 -17 11 -131 33 -140 28 -4 -3 -8 -1 -8 4 0 5
-10 12 -22 16 -20 5 -21 8 -8 17 12 8 7 9 -17 5 -34 -6 -39 0 -35 49 2 14 0
16 -6 7 -10 -15 -52 -25 -52 -12 0 9 -70 -7 -83 -20 -5 -4 -24 -4 -43 0 -19 5
-34 4 -34 -1 0 -5 -8 -9 -17 -8 -11 0 -13 3 -5 6 24 10 12 25 -15 19 -19 -5
-23 -4 -14 3 8 5 11 16 8 25 -4 10 -1 16 9 16 8 0 12 -4 9 -10 -4 -6 6 -7 25
-4 21 5 30 3 30 -7 0 -8 6 -5 15 7 12 15 16 16 24 5 5 -8 18 -11 32 -7 13 3
18 3 12 0 -18 -8 -16 -25 2 -18 21 8 19 42 -2 40 -10 0 -18 7 -20 19 -2 17 -2
17 5 3 5 -12 11 -15 22 -8 10 7 11 10 3 10 -7 0 -13 5 -13 10 0 19 21 10 30
-12 5 -13 9 -18 10 -13 0 6 5 3 10 -5 6 -11 12 -12 20 -4 11 11 192 -14 218
-30 7 -4 12 -2 12 5 0 8 4 8 15 -1 10 -9 15 -9 15 -1 0 6 -3 11 -7 12 -12 1
-46 7 -65 11 -22 5 -36 18 -19 18 7 0 9 5 6 10 -3 6 1 10 10 10 9 0 14 -4 11
-9 -3 -5 1 -11 9 -15 8 -3 15 0 16 7 0 9 2 9 6 0 2 -7 9 -13 14 -13 6 0 6 7 0
19 -6 10 -8 21 -4 24 3 3 -6 9 -19 12 -14 4 -25 12 -25 19 0 8 8 11 20 8 15
-4 18 -2 12 9 -6 11 -5 12 5 2 8 -7 16 -21 18 -30z m179 31 c-3 -3 -12 -4 -19
-1 -8 3 -5 6 6 6 11 1 17 -2 13 -5z m-127 -24 c0 -5 -7 -7 -15 -4 -8 4 -12 10
-9 15 6 11 24 2 24 -11z m63 13 c-7 -2 -19 -2 -25 0 -7 3 -2 5 12 5 14 0 19
-2 13 -5z m1221 -8 c-4 -8 -10 -12 -15 -9 -14 8 -10 24 6 24 9 0 12 -6 9 -15z
m-1654 1 c0 -2 -9 -6 -20 -9 -11 -3 -18 -1 -14 4 5 9 34 13 34 5z m1760 -6 c8
-5 11 -10 5 -10 -5 0 -17 5 -25 10 -8 5 -10 10 -5 10 6 0 17 -5 25 -10z m610
0 c0 -5 -7 -7 -15 -4 -8 4 -15 8 -15 10 0 2 7 4 15 4 8 0 15 -4 15 -10z
m-2573 -14 c0 -8 -6 -12 -15 -9 -11 5 -11 7 0 14 7 5 13 9 14 9 0 0 1 -6 1
-14z m444 0 c-7 -8 -21 -12 -34 -8 -20 6 -20 7 8 13 17 4 32 7 34 8 2 0 -2 -5
-8 -13z m1554 -6 c3 -6 -4 -10 -17 -10 -18 0 -20 2 -8 10 19 12 18 12 25 0z
m35 -10 c-7 -4 1 -13 22 -23 19 -9 26 -17 16 -17 -9 0 -20 5 -23 10 -4 6 -14
10 -23 9 -10 -1 -26 0 -37 1 -17 2 -16 3 5 9 14 4 24 13 23 19 -2 6 4 9 13 5
11 -4 12 -8 4 -13z m-1673 3 c-11 -3 -16 -11 -13 -19 3 -8 -1 -14 -9 -14 -8 0
-15 4 -15 8 0 14 23 32 40 31 11 -1 10 -3 -3 -6z m1573 -8 c-10 -12 -10 -15 1
-15 11 0 11 -2 -1 -9 -8 -6 -18 -7 -22 -5 -14 9 -8 32 10 37 9 3 19 5 21 6 2
0 -2 -6 -9 -14z m390 5 c0 -5 -5 -10 -11 -10 -5 0 -7 5 -4 10 3 6 8 10 11 10
2 0 4 -4 4 -10z m47 4 c-3 -3 -12 -4 -19 -1 -8 3 -5 6 6 6 11 1 17 -2 13 -5z
m-2262 -14 c-3 -5 1 -10 10 -10 9 0 14 -4 10 -10 -3 -5 -13 -6 -22 -3 -9 4
-14 2 -11 -3 3 -5 -14 -10 -38 -10 -39 -1 -42 0 -27 12 10 7 28 14 40 14 12 0
25 5 28 10 3 6 8 10 11 10 3 0 2 -4 -1 -10z m202 4 c-3 -3 -12 -4 -19 -1 -8 3
-5 6 6 6 11 1 17 -2 13 -5z m493 -4 c0 -5 -5 -10 -11 -10 -5 0 -7 5 -4 10 3 6
8 10 11 10 2 0 4 -4 4 -10z m841 -6 c10 -9 29 -17 43 -18 14 0 26 -4 26 -8 0
-7 -16 -12 -32 -9 -4 0 -5 -6 -1 -15 5 -14 3 -15 -15 -5 -11 6 -22 16 -24 21
-2 6 -19 13 -38 15 -22 3 -30 1 -21 -4 9 -6 10 -11 2 -15 -6 -4 -11 -2 -11 3
0 6 -4 11 -10 11 -5 0 -10 -6 -10 -14 0 -8 -5 -18 -11 -21 -16 -11 -6 28 11
42 8 7 23 13 33 13 9 0 17 5 17 10 0 15 21 12 41 -6z m-1471 -10 c0 -2 -7 -4
-15 -4 -8 0 -15 4 -15 10 0 5 7 7 15 4 8 -4 15 -8 15 -10z m250 2 c0 -2 -7 -6
-15 -10 -8 -3 -15 -1 -15 4 0 6 7 10 15 10 8 0 15 -2 15 -4z m996 -6 c31 0 54
-4 54 -11 0 -5 -4 -7 -10 -4 -5 3 -10 2 -10 -4 0 -5 14 -13 31 -16 23 -5 28
-9 18 -16 -12 -7 -12 -9 0 -9 18 0 6 -13 -14 -16 -8 -1 -15 5 -15 14 0 10 -3
13 -8 7 -10 -14 -66 -12 -84 2 -11 10 -17 10 -28 0 -7 -6 -4 1 6 18 11 16 14
26 8 22 -7 -4 -18 1 -25 10 -12 15 -12 16 4 10 10 -4 43 -7 73 -7z m777 3 c-7
-2 -19 -2 -25 0 -7 3 -2 5 12 5 14 0 19 -2 13 -5z m-2209 -32 c-7 -8 -35 9
-29 19 4 6 11 5 20 -3 7 -6 11 -14 9 -16z m2149 22 c-7 -2 -21 -2 -30 0 -10 3
-4 5 12 5 17 0 24 -2 18 -5z m-1398 -35 c0 -18 -4 -39 -9 -46 -5 -9 -2 -15 13
-19 11 -3 18 -9 15 -14 -3 -5 0 -9 5 -9 6 0 11 6 11 13 0 8 4 7 10 -3 8 -12
10 -9 10 12 0 15 4 29 9 32 5 4 7 -3 4 -14 -3 -12 0 -20 7 -20 6 0 25 -9 41
-20 41 -30 23 -63 -20 -36 -17 11 -33 -12 -28 -40 3 -19 -3 -23 -64 -33 -98
-16 -98 -15 -44 34 28 25 53 45 58 45 16 0 6 18 -19 35 -24 16 -25 16 -16 -2
5 -10 6 -27 1 -38 -4 -11 -8 -18 -9 -15 -5 15 -11 46 -12 56 -1 6 -9 9 -19 7
-13 -4 -18 0 -16 16 1 23 12 28 21 9 4 -7 4 -3 2 10 -2 12 0 20 5 16 5 -3 17
0 26 6 16 10 16 11 -2 6 -20 -6 -20 -6 -1 9 11 8 16 15 12 15 -4 0 -4 5 -1 10
10 16 11 12 10 -22z m75 23 c0 -5 -7 -11 -14 -14 -10 -4 -13 -1 -9 9 6 15 23
19 23 5z m1223 2 c-7 -2 -21 -2 -30 0 -10 3 -4 5 12 5 17 0 24 -2 18 -5z
m-520 -10 c-7 -2 -19 -2 -25 0 -7 3 -2 5 12 5 14 0 19 -2 13 -5z m464 1 c-3
-3 -12 -4 -19 -1 -8 3 -5 6 6 6 11 1 17 -2 13 -5z m-1942 -14 c-3 -5 -12 -7
-20 -3 -21 7 -19 13 6 13 11 0 18 -4 14 -10z m638 -15 c-3 -9 -8 -14 -10 -11
-3 3 -2 9 2 15 9 16 15 13 8 -4z m934 -3 c-1 -14 -8 -18 -26 -15 -23 3 -24 2
-6 -6 l20 -10 -20 0 c-11 0 -26 3 -33 8 -10 6 -6 10 15 16 15 5 31 8 36 7 4
-1 7 3 7 8 0 6 2 10 4 10 3 0 4 -8 3 -18z m240 12 c-3 -3 -12 -4 -19 -1 -8 3
-5 6 6 6 11 1 17 -2 13 -5z m-122 -14 c-3 -5 -14 -10 -23 -9 -14 0 -13 2 3 9
27 11 27 11 20 0z m42 4 c-3 -3 -12 -4 -19 -1 -8 3 -5 6 6 6 11 1 17 -2 13 -5z
m-1543 -29 c-19 -15 -19 -15 1 -8 21 7 21 5 -9 -17 -14 -11 -18 -11 -12 -2 6
9 1 15 -15 20 l-24 6 25 7 c44 12 56 10 34 -6z m416 0 c0 -8 -4 -15 -10 -15
-5 0 -7 7 -4 15 4 8 8 15 10 15 2 0 4 -7 4 -15z m-470 -21 c0 -2 -7 -4 -15 -4
-8 0 -15 4 -15 10 0 5 7 7 15 4 8 -4 15 -8 15 -10z m1310 7 c0 -5 -14 -11 -31
-15 -18 -3 -28 -10 -24 -17 4 -6 -2 -5 -13 2 -26 16 -23 19 20 26 18 3 35 7
37 9 7 6 11 5 11 -5z m53 2 c-7 -2 -19 -2 -25 0 -7 3 -2 5 12 5 14 0 19 -2 13
-5z m-1400 -26 c4 -10 -2 -13 -20 -9 -18 3 -21 7 -11 13 18 12 25 11 31 -4z
m1187 -2 c0 -9 -9 -15 -22 -15 -21 0 -21 0 -2 15 24 18 24 18 24 0z m57 -1
c-3 -3 -12 -4 -19 -1 -8 3 -5 6 6 6 11 1 17 -2 13 -5z m-681 -45 c-1 -11 -4
-18 -7 -17 -3 2 -14 -4 -25 -12 -18 -14 -18 -14 -1 6 9 11 17 31 17 45 0 17 3
20 9 11 4 -8 8 -22 7 -33z m-736 17 c0 -3 -4 -8 -10 -11 -5 -3 -10 -1 -10 4 0
6 5 11 10 11 6 0 10 -2 10 -4z m426 -8 c4 -7 4 -10 -1 -6 -9 9 -37 -11 -31
-21 3 -4 -4 -7 -15 -8 -16 -2 -14 2 9 22 32 29 29 28 38 13z m72 -20 c7 -7 12
-8 12 -2 0 5 8 10 18 10 10 0 19 -6 19 -14 0 -7 -7 -10 -15 -7 -9 3 -18 1 -22
-4 -3 -6 -13 -2 -23 9 -18 21 -9 28 11 8z m-289 -22 c9 -11 9 -16 -1 -22 -7
-4 -10 -4 -6 1 4 4 3 14 -3 22 -6 7 -9 13 -6 13 2 0 10 -6 16 -14z m261 2 c0
-4 -4 -8 -9 -8 -6 0 -12 4 -15 8 -3 5 1 9 9 9 8 0 15 -4 15 -9z m487 -4 c-3
-3 -12 -4 -19 -1 -8 3 -5 6 6 6 11 1 17 -2 13 -5z m-976 -68 c-7 -8 -4 -12 10
-12 10 0 19 4 19 8 0 4 5 8 10 8 6 0 9 -6 8 -12 -2 -9 9 -13 35 -12 20 1 37
-3 37 -7 0 -5 -7 -9 -16 -9 -8 0 -12 -4 -9 -10 3 -5 -14 -1 -40 10 -25 11 -51
17 -59 14 -8 -3 -17 0 -21 5 -3 6 -10 9 -15 6 -4 -3 -12 1 -18 8 -8 9 -1 12
29 13 28 1 36 -2 30 -10z m1069 -7 c16 -10 2 -8 -75 11 -39 9 -39 9 10 4 28
-3 57 -10 65 -15z m-453 5 c-3 -3 -12 -4 -19 -1 -8 3 -5 6 6 6 11 1 17 -2 13
-5z m-60 -10 c-3 -3 -12 -4 -19 -1 -8 3 -5 6 6 6 11 1 17 -2 13 -5z m-572 -44
c3 -5 1 -10 -4 -10 -6 0 -11 5 -11 10 0 6 2 10 4 10 3 0 8 -4 11 -10z m275 0
c0 -5 -5 -10 -11 -10 -5 0 -7 5 -4 10 3 6 8 10 11 10 2 0 4 -4 4 -10z"/>
<path d="M3481 3954 c0 -11 3 -14 6 -6 3 7 2 16 -1 19 -3 4 -6 -2 -5 -13z"/>
<path d="M2235 3170 c-3 -5 3 -10 15 -10 12 0 18 5 15 10 -3 6 -10 10 -15 10
-5 0 -12 -4 -15 -10z"/>
<path d="M1374 2938 c3 -29 6 -79 6 -110 l0 -58 40 0 c57 0 90 35 90 98 0 27
-7 57 -16 70 -19 28 -65 52 -100 52 -26 0 -27 -1 -20 -52z"/>
<path d="M2240 2901 c0 -31 4 -41 20 -46 37 -12 60 3 60 40 0 35 -13 45 -56
45 -21 0 -24 -4 -24 -39z"/>
<path d="M2434 2749 c-8 -14 21 -43 35 -35 6 4 16 16 21 27 10 17 7 19 -19 19
-16 0 -33 -5 -37 -11z"/>
<path d="M1677 2783 c-17 -16 -6 -43 16 -43 25 0 47 17 47 37 0 13 -51 19 -63
6z"/>
<path d="M3250 2719 c0 -5 5 -7 10 -4 6 3 10 8 10 11 0 2 -4 4 -10 4 -5 0 -10
-5 -10 -11z"/>
<path d="M1770 2480 c0 -11 5 -20 10 -20 6 0 10 9 10 20 0 11 -4 20 -10 20 -5
0 -10 -9 -10 -20z"/>
<path d="M2210 2480 c0 -11 5 -20 10 -20 6 0 10 9 10 20 0 11 -4 20 -10 20 -5
0 -10 -9 -10 -20z"/>
<path d="M2406 2493 c-12 -12 -6 -33 9 -33 8 0 15 6 15 14 0 17 -14 28 -24 19z"/>
<path d="M1898 2373 c7 -3 16 -2 19 1 4 3 -2 6 -13 5 -11 0 -14 -3 -6 -6z"/>
<path d="M1943 2363 c4 -3 1 -13 -6 -21 -11 -13 -9 -14 10 -2 22 14 22 30 1
30 -6 0 -8 -3 -5 -7z"/>
<path d="M1935 2300 c3 -5 11 -10 16 -10 6 0 7 5 4 10 -3 6 -11 10 -16 10 -6
0 -7 -4 -4 -10z"/>
<path d="M1626 2227 c3 -10 9 -15 12 -12 3 3 0 11 -7 18 -10 9 -11 8 -5 -6z"/>
<path d="M1755 2230 c3 -5 8 -10 11 -10 2 0 4 5 4 10 0 6 -5 10 -11 10 -5 0
-7 -4 -4 -10z"/>
<path d="M1551 2125 c12 -22 26 -44 32 -50 15 -16 -20 48 -38 70 -9 11 -7 2 6
-20z"/>
<path d="M1951 2124 c0 -11 3 -14 6 -6 3 7 2 16 -1 19 -3 4 -6 -2 -5 -13z"/>
<path d="M1722 2105 c0 -16 2 -22 5 -12 2 9 2 23 0 30 -3 6 -5 -1 -5 -18z"/>
<path d="M1990 2075 c0 -14 4 -25 9 -25 4 0 6 11 3 25 -2 14 -6 25 -8 25 -2 0
-4 -11 -4 -25z"/>
<path d="M1651 2034 c0 -11 3 -14 6 -6 3 7 2 16 -1 19 -3 4 -6 -2 -5 -13z"/>
<path d="M1712 2030 c0 -14 2 -19 5 -12 2 6 2 18 0 25 -3 6 -5 1 -5 -13z"/>
<path d="M1691 1950 c-6 -28 -18 -58 -26 -66 -8 -8 -12 -21 -9 -29 4 -8 1 -15
-6 -15 -7 0 -10 -7 -6 -15 3 -8 0 -15 -6 -15 -6 0 -8 -3 -5 -7 4 -3 2 -12 -4
-19 -6 -8 -6 -14 0 -18 10 -7 47 64 55 104 2 14 9 47 15 74 7 27 10 51 7 53
-2 2 -9 -19 -15 -47z"/>
<path d="M1631 1919 c-8 -33 -19 -66 -26 -72 -15 -15 -15 -45 -1 -50 6 -3 12
8 13 24 1 16 8 39 15 51 11 21 24 108 16 108 -2 0 -10 -27 -17 -61z"/>
<path d="M1551 1854 c0 -11 3 -14 6 -6 3 7 2 16 -1 19 -3 4 -6 -2 -5 -13z"/>
<path d="M2062 1828 c-17 -17 -15 -40 4 -36 21 4 39 48 21 48 -7 0 -18 -5 -25
-12z"/>
<path d="M2045 1770 c-3 -6 1 -7 9 -4 18 7 21 14 7 14 -6 0 -13 -4 -16 -10z"/>
<path d="M2020 1566 c0 -8 4 -17 9 -20 5 -4 7 3 4 14 -6 23 -13 26 -13 6z"/>
<path d="M1705 1521 c-3 -5 0 -13 6 -17 7 -4 9 -3 5 4 -3 5 0 13 6 15 9 4 10
6 1 6 -6 1 -14 -3 -18 -8z"/>
<path d="M1775 1449 c-4 -6 -5 -12 -2 -15 2 -3 7 2 10 11 7 17 1 20 -8 4z"/>
<path d="M1883 1340 c-3 -11 -9 -17 -14 -14 -5 3 -6 -3 -2 -13 3 -10 3 -15 -2
-11 -11 10 -33 -15 -41 -46 -3 -14 -10 -26 -16 -26 -5 0 -7 -4 -4 -9 3 -5 -1
-30 -9 -56 -14 -47 -13 -48 11 -68 24 -19 25 -20 7 -40 -18 -19 -17 -20 3 -9
12 6 27 25 34 42 7 16 15 30 19 30 4 0 7 8 8 18 1 9 4 58 8 107 3 50 8 96 10
103 3 6 2 12 -1 12 -3 0 -8 -9 -11 -20z"/>
<path d="M1781 1240 c-19 -44 -32 -83 -29 -85 3 -3 13 15 22 40 10 25 24 52
33 60 8 8 13 26 11 40 -2 19 -11 7 -37 -55z"/>
<path d="M1600 1114 c0 -17 -4 -23 -12 -19 -7 4 -2 -3 11 -14 14 -13 36 -21
55 -20 l31 1 -30 8 c-16 4 -27 8 -22 9 4 0 1 11 -8 24 -8 13 -12 27 -8 30 3 4
1 7 -5 7 -7 0 -12 -12 -12 -26z"/>
<path d="M1676 1115 c-16 -12 -17 -15 -4 -15 9 0 18 7 22 15 7 18 6 18 -18 0z"/>
<path d="M1678 963 c6 -2 18 -2 25 0 6 3 1 5 -13 5 -14 0 -19 -2 -12 -5z"/>
<path d="M2107 2485 c-7 -16 8 -29 23 -20 10 6 2 35 -10 35 -4 0 -10 -7 -13
-15z"/>
<path d="M3125 2130 c1 -8 -2 -21 -8 -27 -5 -7 -5 -13 0 -13 5 0 16 13 25 28
16 26 16 28 -2 28 -10 0 -17 -7 -15 -16z"/>
<path d="M3099 1964 c-7 -9 -22 -14 -36 -11 -22 4 -23 1 -23 -49 0 -30 4 -54
9 -54 4 0 7 -12 5 -27 -4 -23 43 91 50 122 1 6 5 16 9 23 11 17 2 15 -14 -4z"/>
<path d="M3180 1640 c0 -5 4 -10 9 -10 6 0 13 5 16 10 3 6 -1 10 -9 10 -9 0
-16 -4 -16 -10z"/>
<path d="M3020 1620 c8 -5 22 -9 30 -9 10 0 8 3 -5 9 -27 12 -43 12 -25 0z"/>
<path d="M2350 2051 c0 -10 9 -21 20 -24 11 -3 20 -3 20 -1 0 2 -9 13 -20 24
-19 19 -20 19 -20 1z"/>
<path d="M2470 1766 c0 -3 9 -10 20 -16 11 -6 20 -8 20 -6 0 3 -9 10 -20 16
-11 6 -20 8 -20 6z"/>
<path d="M218 1633 c7 -3 16 -2 19 1 4 3 -2 6 -13 5 -11 0 -14 -3 -6 -6z"/>
<path d="M2906 1335 c-3 -8 -1 -15 4 -15 6 0 10 7 10 15 0 8 -2 15 -4 15 -2 0
-6 -7 -10 -15z"/>
<path d="M716 932 c-8 -13 35 -27 56 -19 7 3 1 6 -14 6 -14 1 -28 6 -30 13 -3
9 -6 9 -12 0z"/>
<path d="M1011 891 c-19 -12 -5 -31 21 -26 27 6 40 18 13 13 -12 -2 -19 2 -17
10 2 14 1 14 -17 3z"/>
<path d="M1144 855 c-10 -8 -14 -14 -9 -15 15 0 40 18 34 24 -3 3 -14 -1 -25
-9z"/>
<path d="M1175 840 c-3 -5 -1 -10 4 -10 6 0 11 5 11 10 0 6 -2 10 -4 10 -3 0
-8 -4 -11 -10z"/>
<path d="M1425 840 c4 -6 11 -8 16 -5 5 4 12 -1 15 -10 5 -13 9 -14 15 -4 5 8
3 17 -4 21 -18 11 -49 10 -42 -2z"/>
<path d="M1371 791 c-11 -7 -10 -11 6 -20 23 -12 34 -6 26 15 -6 16 -13 17
-32 5z"/>
<path d="M1337 783 c-4 -3 -7 -12 -7 -20 0 -15 26 -18 34 -4 7 11 -18 33 -27
24z"/>
<path d="M7 2827 c-3 -7 5 -12 19 -12 29 0 29 1 5 14 -14 8 -20 7 -24 -2z"/>
</g>
</svg>
